<svg width="534" height="253" viewBox="0 0 534 253" fill="none" xmlns="http://www.w3.org/2000/svg">
<g filter="url(#filter0_b_0_10803)">
<rect x="420.535" y="3.08398" width="48" height="48" transform="rotate(28 420.535 3.08398)" fill="white" fill-opacity="0.0792572"/>
<rect x="419.914" y="1.05536" width="51" height="51" transform="rotate(28 419.914 1.05536)" stroke="#5087F7" stroke-width="3" stroke-linejoin="round"/>
</g>
<rect x="195.077" y="29.1816" width="12" height="12" transform="rotate(-20 195.077 29.1816)" stroke="#C468FF" stroke-width="3" stroke-linecap="square" stroke-linejoin="round"/>
<rect x="499.628" y="81.9177" width="12" height="12" transform="rotate(34 499.628 81.9177)" stroke="#C468FF" stroke-width="3" stroke-linecap="square" stroke-linejoin="round"/>
<g filter="url(#filter1_b_0_10803)">
<circle cx="129" cy="115" r="16" fill="white" fill-opacity="0.0792572"/>
<circle cx="129" cy="115" r="17.5" stroke="#E6606C" stroke-width="3" stroke-linejoin="round"/>
</g>
<g filter="url(#filter2_b_0_10803)">
<circle cx="9.9743" cy="85.5" r="6.5" fill="white" fill-opacity="0.0792572"/>
<circle cx="9.9743" cy="85.5" r="8" stroke="#E6606C" stroke-width="3" stroke-linejoin="round"/>
</g>
<g filter="url(#filter3_b_0_10803)">
<circle cx="463.5" cy="218.249" r="6.5" fill="white" fill-opacity="0.0792572"/>
<circle cx="463.5" cy="218.249" r="8" stroke="#E6606C" stroke-width="3" stroke-linejoin="round"/>
</g>
<g filter="url(#filter4_b_0_10803)">
<path d="M57.2277 172.233L60.6602 202.835L31 188.369L57.2277 172.233Z" fill="white" fill-opacity="0.0792572"/>
<path d="M58.7184 172.066C58.6612 171.556 58.3468 171.11 57.8853 170.885C57.4238 170.66 56.8791 170.686 56.4418 170.956L30.214 187.091C29.748 187.378 29.4751 187.895 29.5018 188.442C29.5285 188.988 29.8507 189.477 30.3424 189.717L60.0026 204.183C60.4944 204.423 61.0778 204.376 61.5248 204.061C61.9719 203.745 62.2118 203.211 62.1509 202.668L58.7184 172.066Z" stroke="#6357F6" stroke-width="3" stroke-linejoin="round"/>
</g>
<path d="M323.02 188.227L324.933 188.812L325.518 186.899L323.605 186.315L323.02 188.227ZM322.436 190.14L320.523 189.555L322.436 190.14ZM319.195 187.058L319.78 185.145L317.867 184.56L317.282 186.473L319.195 187.058ZM318.61 188.97L316.698 188.386L318.61 188.97ZM312.178 210.009L311.593 211.922L313.506 212.506L314.091 210.594L312.178 210.009ZM291.139 203.577L291.724 201.664L291.139 203.577ZM289.227 202.992L289.812 201.079L287.899 200.495L287.314 202.407L289.227 202.992ZM288.057 206.817L286.145 206.233L285.56 208.145L287.473 208.73L288.057 206.817ZM289.97 207.402L290.555 205.489L289.97 207.402ZM311.009 213.834L312.921 214.419L313.506 212.506L311.593 211.922L311.009 213.834ZM303.992 236.785L302.079 236.201L301.494 238.113L303.407 238.698L303.992 236.785ZM307.817 237.955L307.232 239.868L309.145 240.452L309.73 238.54L307.817 237.955ZM308.402 236.042L306.489 235.458L308.402 236.042ZM314.834 215.004L315.419 213.091L313.506 212.506L312.921 214.419L314.834 215.004ZM337.785 222.021L337.2 223.933L339.113 224.518L339.698 222.605L337.785 222.021ZM338.955 218.195L340.867 218.78L341.452 216.868L339.539 216.283L338.955 218.195ZM316.003 211.178L314.091 210.594L313.506 212.506L315.419 213.091L316.003 211.178ZM321.108 187.642L320.523 189.555L324.348 190.724L324.933 188.812L321.108 187.642ZM318.61 188.97L322.436 190.14L323.605 186.315L319.78 185.145L318.61 188.97ZM320.523 189.555L321.108 187.642L317.282 186.473L316.698 188.386L320.523 189.555ZM314.091 210.594L320.523 189.555L316.698 188.386L310.266 209.424L314.091 210.594ZM290.555 205.489L311.593 211.922L312.763 208.096L291.724 201.664L290.555 205.489ZM288.642 204.905L290.555 205.489L291.724 201.664L289.812 201.079L288.642 204.905ZM289.97 207.402L291.139 203.577L287.314 202.407L286.145 206.233L289.97 207.402ZM290.555 205.489L288.642 204.905L287.473 208.73L289.385 209.315L290.555 205.489ZM311.593 211.922L290.555 205.489L289.385 209.315L310.424 215.747L311.593 211.922ZM306.489 235.458L312.921 214.419L309.096 213.249L302.664 234.288L306.489 235.458ZM305.904 237.37L306.489 235.458L302.664 234.288L302.079 236.201L305.904 237.37ZM308.402 236.042L304.577 234.873L303.407 238.698L307.232 239.868L308.402 236.042ZM306.489 235.458L305.904 237.37L309.73 238.54L310.314 236.627L306.489 235.458ZM312.921 214.419L306.489 235.458L310.314 236.627L316.747 215.588L312.921 214.419ZM336.457 219.523L315.419 213.091L314.249 216.916L335.288 223.348L336.457 219.523ZM338.37 220.108L336.457 219.523L335.288 223.348L337.2 223.933L338.37 220.108ZM337.042 217.611L335.873 221.436L339.698 222.605L340.867 218.78L337.042 217.611ZM336.457 219.523L338.37 220.108L339.539 216.283L337.627 215.698L336.457 219.523ZM315.419 213.091L336.457 219.523L337.627 215.698L316.588 209.266L315.419 213.091ZM320.523 189.555L314.091 210.594L317.916 211.763L324.348 190.724L320.523 189.555Z" fill="#C85BDB"/>
<path d="M173.332 223.286L174.656 222.582L173.952 221.257L172.628 221.962L173.332 223.286ZM174.271 225.052L175.595 224.348L174.271 225.052ZM169.8 225.164L169.096 223.84L167.772 224.544L168.476 225.868L169.8 225.164ZM170.739 226.93L172.064 226.226L170.739 226.93ZM173.812 232.709L174.546 234.017L175.825 233.299L175.136 232.004L173.812 232.709ZM168.102 235.913L167.368 234.605L168.102 235.913ZM166.358 236.891L165.624 235.583L164.316 236.317L165.05 237.625L166.358 236.891ZM168.316 240.38L167.008 241.114L167.742 242.422L169.05 241.688L168.316 240.38ZM170.06 239.401L169.326 238.093L169.326 238.093L170.06 239.401ZM175.69 236.241L177.015 235.537L176.294 234.182L174.956 234.933L175.69 236.241ZM178.72 241.94L177.396 242.644L178.72 241.94ZM179.659 243.706L178.335 244.41L179.039 245.735L180.363 245.03L179.659 243.706ZM183.191 241.828L183.895 243.152L185.22 242.448L184.515 241.124L183.191 241.828ZM182.252 240.062L180.928 240.766L182.252 240.062ZM179.179 234.283L178.445 232.975L177.167 233.693L177.855 234.988L179.179 234.283ZM184.889 231.079L185.623 232.387L184.889 231.079ZM186.633 230.101L187.367 231.409L188.675 230.675L187.941 229.367L186.633 230.101ZM184.675 226.612L185.984 225.878L185.25 224.57L183.941 225.304L184.675 226.612ZM182.931 227.591L183.665 228.899L182.931 227.591ZM177.301 230.751L175.977 231.455L176.697 232.81L178.035 232.059L177.301 230.751ZM172.008 223.99L172.947 225.756L175.595 224.348L174.656 222.582L172.008 223.99ZM170.504 226.488L174.036 224.611L172.628 221.962L169.096 223.84L170.504 226.488ZM172.064 226.226L171.125 224.46L168.476 225.868L169.415 227.634L172.064 226.226ZM175.136 232.004L172.064 226.226L169.415 227.634L172.487 233.413L175.136 232.004ZM168.836 237.221L174.546 234.017L173.078 231.401L167.368 234.605L168.836 237.221ZM167.092 238.199L168.836 237.221L167.368 234.605L165.624 235.583L167.092 238.199ZM169.624 239.646L167.666 236.157L165.05 237.625L167.008 241.114L169.624 239.646ZM169.326 238.093L167.582 239.072L169.05 241.688L170.794 240.709L169.326 238.093ZM174.956 234.933L169.326 238.093L170.794 240.709L176.424 237.549L174.956 234.933ZM180.045 241.236L177.015 235.537L174.366 236.946L177.396 242.644L180.045 241.236ZM180.984 243.002L180.045 241.236L177.396 242.644L178.335 244.41L180.984 243.002ZM182.487 240.504L178.955 242.381L180.363 245.03L183.895 243.152L182.487 240.504ZM180.928 240.766L181.866 242.532L184.515 241.124L183.576 239.358L180.928 240.766ZM177.855 234.988L180.928 240.766L183.576 239.358L180.504 233.579L177.855 234.988ZM184.155 229.771L178.445 232.975L179.913 235.591L185.623 232.387L184.155 229.771ZM185.899 228.792L184.155 229.771L185.623 232.387L187.367 231.409L185.899 228.792ZM183.367 227.346L185.325 230.835L187.941 229.367L185.984 225.878L183.367 227.346ZM183.665 228.899L185.41 227.92L183.941 225.304L182.197 226.283L183.665 228.899ZM178.035 232.059L183.665 228.899L182.197 226.283L176.567 229.443L178.035 232.059ZM172.947 225.756L175.977 231.455L178.625 230.046L175.595 224.348L172.947 225.756Z" fill="#C468FF"/>
<defs>
<filter id="filter0_b_0_10803" x="386.845" y="-8.07184" width="87.227" height="87.2277" filterUnits="userSpaceOnUse" color-interpolation-filters="sRGB">
<feFlood flood-opacity="0" result="BackgroundImageFix"/>
<feGaussianBlur in="BackgroundImageFix" stdDeviation="4.07742"/>
<feComposite in2="SourceAlpha" operator="in" result="effect1_backgroundBlur_0_10803"/>
<feBlend mode="normal" in="SourceGraphic" in2="effect1_backgroundBlur_0_10803" result="shape"/>
</filter>
<filter id="filter1_b_0_10803" x="101.845" y="87.8452" width="54.3097" height="54.3097" filterUnits="userSpaceOnUse" color-interpolation-filters="sRGB">
<feFlood flood-opacity="0" result="BackgroundImageFix"/>
<feGaussianBlur in="BackgroundImageFix" stdDeviation="4.07742"/>
<feComposite in2="SourceAlpha" operator="in" result="effect1_backgroundBlur_0_10803"/>
<feBlend mode="normal" in="SourceGraphic" in2="effect1_backgroundBlur_0_10803" result="shape"/>
</filter>
<filter id="filter2_b_0_10803" x="-7.68054" y="67.8452" width="35.3097" height="35.3097" filterUnits="userSpaceOnUse" color-interpolation-filters="sRGB">
<feFlood flood-opacity="0" result="BackgroundImageFix"/>
<feGaussianBlur in="BackgroundImageFix" stdDeviation="4.07742"/>
<feComposite in2="SourceAlpha" operator="in" result="effect1_backgroundBlur_0_10803"/>
<feBlend mode="normal" in="SourceGraphic" in2="effect1_backgroundBlur_0_10803" result="shape"/>
</filter>
<filter id="filter3_b_0_10803" x="445.845" y="200.594" width="35.3097" height="35.3097" filterUnits="userSpaceOnUse" color-interpolation-filters="sRGB">
<feFlood flood-opacity="0" result="BackgroundImageFix"/>
<feGaussianBlur in="BackgroundImageFix" stdDeviation="4.07742"/>
<feComposite in2="SourceAlpha" operator="in" result="effect1_backgroundBlur_0_10803"/>
<feBlend mode="normal" in="SourceGraphic" in2="effect1_backgroundBlur_0_10803" result="shape"/>
</filter>
<filter id="filter4_b_0_10803" x="19.8451" y="161.079" width="51.97" height="52.9113" filterUnits="userSpaceOnUse" color-interpolation-filters="sRGB">
<feFlood flood-opacity="0" result="BackgroundImageFix"/>
<feGaussianBlur in="BackgroundImageFix" stdDeviation="4.07742"/>
<feComposite in2="SourceAlpha" operator="in" result="effect1_backgroundBlur_0_10803"/>
<feBlend mode="normal" in="SourceGraphic" in2="effect1_backgroundBlur_0_10803" result="shape"/>
</filter>
</defs>
</svg>
