<svg width="64" height="64" viewBox="0 0 64 64" fill="none" xmlns="http://www.w3.org/2000/svg">
<g filter="url(#filter0_d_0_10685)">
<mask id="path-1-inside-1_0_10685" fill="white">
<path fill-rule="evenodd" clip-rule="evenodd" d="M8.96167 11.259C10.666 11.827 12.0228 13.1838 12.5908 14.8882C12.7823 15.4628 13.3196 15.8499 13.9249 15.8499C14.5303 15.8499 15.0679 15.4628 15.259 14.8882C15.827 13.1838 17.1838 11.827 18.8882 11.259C19.4624 11.0679 19.8499 10.5303 19.8499 9.92493C19.8499 9.31958 19.4628 8.78235 18.8882 8.59082C17.1838 8.02283 15.827 6.66602 15.259 4.96167C15.0679 4.38745 14.5303 4 13.9249 4C13.3196 4 12.7823 4.38745 12.5908 4.96167C12.0228 6.66602 10.6664 8.02283 8.96167 8.59082C8.38745 8.78235 8 9.31958 8 9.92493C8 10.5303 8.38745 11.0679 8.96167 11.259ZM42.1287 12.7744C44.5149 13.5801 46.4155 15.4796 47.2234 17.8647C47.3984 18.4419 47.9346 18.8616 48.5692 18.8616C49.2009 18.8616 49.7356 18.4448 49.9128 17.8713C50.7185 15.4851 52.6177 13.5845 55.0032 12.7766C55.58 12.6016 56 12.0654 56 11.4308C56 10.7991 55.5829 10.2644 55.0094 10.0872C52.6232 9.28149 50.7229 7.38269 49.915 4.99719C49.74 4.42004 49.2039 4 48.5692 4C47.9371 4 47.4028 4.41711 47.2252 4.9906C46.4196 7.37683 44.5204 9.27747 42.1353 10.085C41.5581 10.26 41.1381 10.7965 41.1381 11.4308C41.1384 12.0629 41.5552 12.5972 42.1287 12.7744ZM20.7753 24.7261C20.6797 24.8444 20.5962 24.9645 20.5259 25.0872H13.3427L23.4742 14.9556C23.7379 14.6923 24.0961 14.5439 24.4692 14.5439H29.5006L20.8269 24.6635L20.783 24.7151L20.7753 24.7261ZM32 15.9502L39.8318 25.0872H24.1689L32 15.9502ZM43.2339 24.7385C43.3258 24.8528 43.4056 24.9692 43.4741 25.0872H50.6573L40.5258 14.9556C40.2621 14.6923 39.9039 14.5439 39.5308 14.5439H34.4994L43.1815 24.6737L43.2339 24.7385ZM27.7183 43.509L13.309 27.8997H20.5138L27.7183 43.509ZM23.6123 27.8997L32 46.0751L40.3888 27.8997H23.6123ZM36.2817 43.509L43.4862 27.8997H50.691L36.2817 43.509ZM51.4092 41.1118C51.9772 42.8162 53.3336 44.173 55.0383 44.741C55.6125 44.9321 56 45.4697 56 46.0751C56 46.6804 55.6125 47.2177 55.0383 47.4092C53.334 47.9772 51.9772 49.3336 51.4092 51.0383C51.2177 51.6125 50.6804 52 50.0751 52C49.4697 52 48.9321 51.6125 48.741 51.0383C48.173 49.334 46.8162 47.9772 45.1118 47.4092C44.5376 47.2177 44.1501 46.6804 44.1501 46.0751C44.1501 45.4697 44.5376 44.9321 45.1118 44.741C46.8162 44.173 48.173 42.8162 48.741 41.1118C48.9321 40.5376 49.4697 40.1501 50.0751 40.1501C50.6804 40.1501 51.2177 40.5376 51.4092 41.1118ZM16.777 38.1356C17.5845 40.5208 19.4851 42.4199 21.8713 43.2252C22.4448 43.4028 22.8616 43.9371 22.8616 44.5692C22.8616 45.2035 22.4419 45.74 21.8647 45.915C19.4796 46.7229 17.5801 48.6232 16.7748 51.0094C16.5972 51.5829 16.0629 52 15.4308 52C14.7965 52 14.26 51.58 14.085 51.0028C13.2775 48.6177 11.3768 46.7185 8.9906 45.9128C8.41675 45.7356 8 45.2009 8 44.5692C8 43.9346 8.42004 43.3984 8.99719 43.2234C11.3823 42.4155 13.2815 40.5149 14.0872 38.1287C14.2648 37.5552 14.7991 37.1381 15.4308 37.1381C16.0654 37.1381 16.6019 37.5581 16.777 38.1356Z"/>
</mask>
<path fill-rule="evenodd" clip-rule="evenodd" d="M8.96167 11.259C10.666 11.827 12.0228 13.1838 12.5908 14.8882C12.7823 15.4628 13.3196 15.8499 13.9249 15.8499C14.5303 15.8499 15.0679 15.4628 15.259 14.8882C15.827 13.1838 17.1838 11.827 18.8882 11.259C19.4624 11.0679 19.8499 10.5303 19.8499 9.92493C19.8499 9.31958 19.4628 8.78235 18.8882 8.59082C17.1838 8.02283 15.827 6.66602 15.259 4.96167C15.0679 4.38745 14.5303 4 13.9249 4C13.3196 4 12.7823 4.38745 12.5908 4.96167C12.0228 6.66602 10.6664 8.02283 8.96167 8.59082C8.38745 8.78235 8 9.31958 8 9.92493C8 10.5303 8.38745 11.0679 8.96167 11.259ZM42.1287 12.7744C44.5149 13.5801 46.4155 15.4796 47.2234 17.8647C47.3984 18.4419 47.9346 18.8616 48.5692 18.8616C49.2009 18.8616 49.7356 18.4448 49.9128 17.8713C50.7185 15.4851 52.6177 13.5845 55.0032 12.7766C55.58 12.6016 56 12.0654 56 11.4308C56 10.7991 55.5829 10.2644 55.0094 10.0872C52.6232 9.28149 50.7229 7.38269 49.915 4.99719C49.74 4.42004 49.2039 4 48.5692 4C47.9371 4 47.4028 4.41711 47.2252 4.9906C46.4196 7.37683 44.5204 9.27747 42.1353 10.085C41.5581 10.26 41.1381 10.7965 41.1381 11.4308C41.1384 12.0629 41.5552 12.5972 42.1287 12.7744ZM20.7753 24.7261C20.6797 24.8444 20.5962 24.9645 20.5259 25.0872H13.3427L23.4742 14.9556C23.7379 14.6923 24.0961 14.5439 24.4692 14.5439H29.5006L20.8269 24.6635L20.783 24.7151L20.7753 24.7261ZM32 15.9502L39.8318 25.0872H24.1689L32 15.9502ZM43.2339 24.7385C43.3258 24.8528 43.4056 24.9692 43.4741 25.0872H50.6573L40.5258 14.9556C40.2621 14.6923 39.9039 14.5439 39.5308 14.5439H34.4994L43.1815 24.6737L43.2339 24.7385ZM27.7183 43.509L13.309 27.8997H20.5138L27.7183 43.509ZM23.6123 27.8997L32 46.0751L40.3888 27.8997H23.6123ZM36.2817 43.509L43.4862 27.8997H50.691L36.2817 43.509ZM51.4092 41.1118C51.9772 42.8162 53.3336 44.173 55.0383 44.741C55.6125 44.9321 56 45.4697 56 46.0751C56 46.6804 55.6125 47.2177 55.0383 47.4092C53.334 47.9772 51.9772 49.3336 51.4092 51.0383C51.2177 51.6125 50.6804 52 50.0751 52C49.4697 52 48.9321 51.6125 48.741 51.0383C48.173 49.334 46.8162 47.9772 45.1118 47.4092C44.5376 47.2177 44.1501 46.6804 44.1501 46.0751C44.1501 45.4697 44.5376 44.9321 45.1118 44.741C46.8162 44.173 48.173 42.8162 48.741 41.1118C48.9321 40.5376 49.4697 40.1501 50.0751 40.1501C50.6804 40.1501 51.2177 40.5376 51.4092 41.1118ZM16.777 38.1356C17.5845 40.5208 19.4851 42.4199 21.8713 43.2252C22.4448 43.4028 22.8616 43.9371 22.8616 44.5692C22.8616 45.2035 22.4419 45.74 21.8647 45.915C19.4796 46.7229 17.5801 48.6232 16.7748 51.0094C16.5972 51.5829 16.0629 52 15.4308 52C14.7965 52 14.26 51.58 14.085 51.0028C13.2775 48.6177 11.3768 46.7185 8.9906 45.9128C8.41675 45.7356 8 45.2009 8 44.5692C8 43.9346 8.42004 43.3984 8.99719 43.2234C11.3823 42.4155 13.2815 40.5149 14.0872 38.1287C14.2648 37.5552 14.7991 37.1381 15.4308 37.1381C16.0654 37.1381 16.6019 37.5581 16.777 38.1356Z" fill="url(#paint0_linear_0_10685)"/>
<path fill-rule="evenodd" clip-rule="evenodd" d="M8.96167 11.259C10.666 11.827 12.0228 13.1838 12.5908 14.8882C12.7823 15.4628 13.3196 15.8499 13.9249 15.8499C14.5303 15.8499 15.0679 15.4628 15.259 14.8882C15.827 13.1838 17.1838 11.827 18.8882 11.259C19.4624 11.0679 19.8499 10.5303 19.8499 9.92493C19.8499 9.31958 19.4628 8.78235 18.8882 8.59082C17.1838 8.02283 15.827 6.66602 15.259 4.96167C15.0679 4.38745 14.5303 4 13.9249 4C13.3196 4 12.7823 4.38745 12.5908 4.96167C12.0228 6.66602 10.6664 8.02283 8.96167 8.59082C8.38745 8.78235 8 9.31958 8 9.92493C8 10.5303 8.38745 11.0679 8.96167 11.259ZM42.1287 12.7744C44.5149 13.5801 46.4155 15.4796 47.2234 17.8647C47.3984 18.4419 47.9346 18.8616 48.5692 18.8616C49.2009 18.8616 49.7356 18.4448 49.9128 17.8713C50.7185 15.4851 52.6177 13.5845 55.0032 12.7766C55.58 12.6016 56 12.0654 56 11.4308C56 10.7991 55.5829 10.2644 55.0094 10.0872C52.6232 9.28149 50.7229 7.38269 49.915 4.99719C49.74 4.42004 49.2039 4 48.5692 4C47.9371 4 47.4028 4.41711 47.2252 4.9906C46.4196 7.37683 44.5204 9.27747 42.1353 10.085C41.5581 10.26 41.1381 10.7965 41.1381 11.4308C41.1384 12.0629 41.5552 12.5972 42.1287 12.7744ZM20.7753 24.7261C20.6797 24.8444 20.5962 24.9645 20.5259 25.0872H13.3427L23.4742 14.9556C23.7379 14.6923 24.0961 14.5439 24.4692 14.5439H29.5006L20.8269 24.6635L20.783 24.7151L20.7753 24.7261ZM32 15.9502L39.8318 25.0872H24.1689L32 15.9502ZM43.2339 24.7385C43.3258 24.8528 43.4056 24.9692 43.4741 25.0872H50.6573L40.5258 14.9556C40.2621 14.6923 39.9039 14.5439 39.5308 14.5439H34.4994L43.1815 24.6737L43.2339 24.7385ZM27.7183 43.509L13.309 27.8997H20.5138L27.7183 43.509ZM23.6123 27.8997L32 46.0751L40.3888 27.8997H23.6123ZM36.2817 43.509L43.4862 27.8997H50.691L36.2817 43.509ZM51.4092 41.1118C51.9772 42.8162 53.3336 44.173 55.0383 44.741C55.6125 44.9321 56 45.4697 56 46.0751C56 46.6804 55.6125 47.2177 55.0383 47.4092C53.334 47.9772 51.9772 49.3336 51.4092 51.0383C51.2177 51.6125 50.6804 52 50.0751 52C49.4697 52 48.9321 51.6125 48.741 51.0383C48.173 49.334 46.8162 47.9772 45.1118 47.4092C44.5376 47.2177 44.1501 46.6804 44.1501 46.0751C44.1501 45.4697 44.5376 44.9321 45.1118 44.741C46.8162 44.173 48.173 42.8162 48.741 41.1118C48.9321 40.5376 49.4697 40.1501 50.0751 40.1501C50.6804 40.1501 51.2177 40.5376 51.4092 41.1118ZM16.777 38.1356C17.5845 40.5208 19.4851 42.4199 21.8713 43.2252C22.4448 43.4028 22.8616 43.9371 22.8616 44.5692C22.8616 45.2035 22.4419 45.74 21.8647 45.915C19.4796 46.7229 17.5801 48.6232 16.7748 51.0094C16.5972 51.5829 16.0629 52 15.4308 52C14.7965 52 14.26 51.58 14.085 51.0028C13.2775 48.6177 11.3768 46.7185 8.9906 45.9128C8.41675 45.7356 8 45.2009 8 44.5692C8 43.9346 8.42004 43.3984 8.99719 43.2234C11.3823 42.4155 13.2815 40.5149 14.0872 38.1287C14.2648 37.5552 14.7991 37.1381 15.4308 37.1381C16.0654 37.1381 16.6019 37.5581 16.777 38.1356Z" fill="url(#paint1_linear_0_10685)"/>
<path d="M12.5908 14.8882L11.6421 15.2044L11.6421 15.2044L12.5908 14.8882ZM8.96167 11.259L9.27784 10.3103L9.27753 10.3102L8.96167 11.259ZM15.259 14.8882L14.3103 14.572L14.3102 14.5725L15.259 14.8882ZM18.8882 11.259L18.5723 10.3102L18.572 10.3103L18.8882 11.259ZM18.8882 8.59082L19.2044 7.64214L19.2044 7.64212L18.8882 8.59082ZM15.259 4.96167L14.3102 5.27753L14.3103 5.27784L15.259 4.96167ZM12.5908 4.96167L11.6422 4.64526L11.6421 4.6455L12.5908 4.96167ZM8.96167 8.59082L8.64556 7.6421L8.64526 7.6422L8.96167 8.59082ZM47.2234 17.8647L48.1803 17.5745L48.1757 17.5591L48.1705 17.5439L47.2234 17.8647ZM42.1287 12.7744L42.4486 11.827L42.4363 11.8228L42.4239 11.819L42.1287 12.7744ZM49.9128 17.8713L48.9654 17.5514L48.9613 17.5637L48.9574 17.5761L49.9128 17.8713ZM55.0032 12.7766L54.7128 11.8197L54.6975 11.8243L54.6824 11.8295L55.0032 12.7766ZM55.0094 10.0872L54.6895 11.0346L54.7018 11.0387L54.7141 11.0426L55.0094 10.0872ZM49.915 4.99719L48.9581 5.28744L48.9627 5.30277L48.9679 5.31795L49.915 4.99719ZM47.2252 4.9906L48.1727 5.31049L48.1767 5.29852L48.1805 5.28644L47.2252 4.9906ZM42.1353 10.085L42.4255 11.0419L42.4408 11.0373L42.4559 11.0322L42.1353 10.085ZM41.1381 11.4308H40.1381V11.4314L41.1381 11.4308ZM20.5259 25.0872V26.0872H21.1053L21.3935 25.5844L20.5259 25.0872ZM20.7753 24.7261L21.5531 25.3546L21.5747 25.3278L21.5945 25.2995L20.7753 24.7261ZM13.3427 25.0872L12.6355 24.3801L10.9284 26.0872H13.3427V25.0872ZM23.4742 14.9556L22.7676 14.248L22.7671 14.2485L23.4742 14.9556ZM29.5006 14.5439L30.2599 15.1947L31.6748 13.5439H29.5006V14.5439ZM20.8269 24.6635L20.0676 24.0127L20.0654 24.0153L20.8269 24.6635ZM20.783 24.7151L20.0214 24.067L19.9908 24.1029L19.9637 24.1416L20.783 24.7151ZM39.8318 25.0872V26.0872H42.006L40.591 24.4364L39.8318 25.0872ZM32 15.9502L32.7593 15.2994L32 14.4136L31.2407 15.2994L32 15.9502ZM24.1689 25.0872L23.4097 24.4364L21.9948 26.0872H24.1689V25.0872ZM43.4741 25.0872L42.6094 25.5894L42.8985 26.0872H43.4741V25.0872ZM43.2339 24.7385L44.0131 24.1117L44.0117 24.1101L43.2339 24.7385ZM50.6573 25.0872V26.0872H53.0716L51.3645 24.3801L50.6573 25.0872ZM40.5258 14.9556L41.2329 14.2485L41.2324 14.248L40.5258 14.9556ZM34.4994 14.5439V13.5439H32.3253L33.7401 15.1947L34.4994 14.5439ZM43.1815 24.6737L43.9594 24.0453L43.9502 24.034L43.9408 24.0229L43.1815 24.6737ZM13.309 27.8997V26.8997H11.0249L12.5742 28.578L13.309 27.8997ZM27.7183 43.509L26.9835 44.1873L28.6262 43.09L27.7183 43.509ZM20.5138 27.8997L21.4218 27.4806L21.1536 26.8997H20.5138V27.8997ZM32 46.0751L31.092 46.4941L31.9999 48.4615L32.908 46.4941L32 46.0751ZM23.6123 27.8997V26.8997H22.0495L22.7043 28.3187L23.6123 27.8997ZM40.3888 27.8997L41.2967 28.3187L41.9517 26.8997H40.3888V27.8997ZM43.4862 27.8997V26.8997H42.8464L42.5783 27.4806L43.4862 27.8997ZM36.2817 43.509L35.3738 43.09L37.0165 44.1873L36.2817 43.509ZM50.691 27.8997L51.4258 28.578L52.9751 26.8997H50.691V27.8997ZM55.0383 44.741L54.7222 45.6897L54.7225 45.6898L55.0383 44.741ZM51.4092 41.1118L52.3579 40.7957L52.3578 40.7954L51.4092 41.1118ZM55.0383 47.4092L55.3545 48.3579L55.3547 48.3578L55.0383 47.4092ZM51.4092 51.0383L52.3578 51.3547L52.3579 51.3544L51.4092 51.0383ZM48.741 51.0383L49.6898 50.7225L49.6897 50.7222L48.741 51.0383ZM45.1118 47.4092L44.7954 48.3578L44.7957 48.3579L45.1118 47.4092ZM45.1118 44.741L45.4277 45.6898L45.428 45.6897L45.1118 44.741ZM48.741 41.1118L49.6897 41.428L49.6898 41.4277L48.741 41.1118ZM21.8713 43.2252L21.5516 44.1727L21.5635 44.1767L21.5755 44.1805L21.8713 43.2252ZM16.777 38.1356L15.82 38.4257L15.8246 38.4411L15.8298 38.4563L16.777 38.1356ZM21.8647 45.915L21.5745 44.9581L21.5591 44.9627L21.5439 44.9679L21.8647 45.915ZM16.7748 51.0094L15.8273 50.6896L15.8233 50.7015L15.8195 50.7136L16.7748 51.0094ZM14.085 51.0028L15.0419 50.7126L15.0373 50.6973L15.0322 50.6821L14.085 51.0028ZM8.9906 45.9128L9.31049 44.9654L9.29815 44.9612L9.28571 44.9574L8.9906 45.9128ZM8.99719 43.2234L9.28744 44.1803L9.3028 44.1757L9.318 44.1705L8.99719 43.2234ZM14.0872 38.1287L15.0346 38.4486L15.0387 38.4366L15.0424 38.4245L14.0872 38.1287ZM13.5395 14.572C12.872 12.569 11.2808 10.9779 9.27784 10.3103L8.6455 12.2077C10.0512 12.6762 11.1737 13.7987 11.6421 15.2044L13.5395 14.572ZM13.9249 14.8499C13.75 14.8499 13.5949 14.7382 13.5395 14.572L11.6421 15.2044C11.9698 16.1874 12.8892 16.8499 13.9249 16.8499V14.8499ZM14.3102 14.5725C14.2552 14.7379 14.1003 14.8499 13.9249 14.8499V16.8499C14.9603 16.8499 15.8806 16.1877 16.2079 15.2039L14.3102 14.5725ZM18.572 10.3103C16.569 10.9779 14.9779 12.569 14.3103 14.572L16.2077 15.2044C16.6762 13.7987 17.7987 12.6762 19.2044 12.2077L18.572 10.3103ZM18.8499 9.92493C18.8499 10.1 18.7378 10.2552 18.5723 10.3102L19.204 12.2078C20.1871 11.8806 20.8499 10.9606 20.8499 9.92493H18.8499ZM18.572 9.5395C18.7382 9.59491 18.8499 9.74999 18.8499 9.92493H20.8499C20.8499 8.88917 20.1874 7.96978 19.2044 7.64214L18.572 9.5395ZM14.3103 5.27784C14.9779 7.28084 16.569 8.872 18.572 9.53952L19.2044 7.64212C17.7987 7.17365 16.6762 6.05119 16.2077 4.6455L14.3103 5.27784ZM13.9249 5C14.1 5 14.2552 5.1121 14.3102 5.27753L16.2078 4.64581C15.8806 3.6628 14.9606 3 13.9249 3V5ZM13.5394 5.27808C13.5949 5.11178 13.7503 5 13.9249 5V3C12.8889 3 11.9698 3.66313 11.6422 4.64526L13.5394 5.27808ZM9.27778 9.53954C11.2813 8.872 12.872 7.28076 13.5395 5.27784L11.6421 4.6455C11.1736 6.05127 10.0515 7.17365 8.64556 7.6421L9.27778 9.53954ZM9 9.92493C9 9.75029 9.11178 9.59491 9.27808 9.53944L8.64526 7.6422C7.66313 7.96978 7 8.88887 7 9.92493H9ZM9.27753 10.3102C9.1121 10.2552 9 10.1 9 9.92493H7C7 10.9606 7.6628 11.8806 8.64581 12.2078L9.27753 10.3102ZM48.1705 17.5439C47.2627 14.8637 45.1302 12.7324 42.4486 11.827L41.8088 13.7219C43.8996 14.4278 45.5683 16.0955 46.2762 18.1856L48.1705 17.5439ZM48.5692 17.8616C48.3867 17.8616 48.231 17.7414 48.1803 17.5745L46.2664 18.155C46.5659 19.1424 47.4824 19.8616 48.5692 19.8616V17.8616ZM48.9574 17.5761C48.906 17.7423 48.7502 17.8616 48.5692 17.8616V19.8616C49.6516 19.8616 50.5651 19.1473 50.8683 18.1666L48.9574 17.5761ZM54.6824 11.8295C52.0017 12.7373 49.8708 14.8698 48.9654 17.5514L50.8603 18.1912C51.5662 16.1004 53.2336 14.4317 55.3239 13.7238L54.6824 11.8295ZM55 11.4308C55 11.613 54.8797 11.769 54.7128 11.8197L55.2936 13.7335C56.2802 13.4341 57 12.5179 57 11.4308H55ZM54.7141 11.0426C54.8808 11.0941 55 11.2502 55 11.4308H57C57 10.3479 56.285 9.43473 55.3047 9.13175L54.7141 11.0426ZM48.9679 5.31795C49.8757 7.99864 52.0079 10.1292 54.6895 11.0346L55.3293 9.1397C53.2385 8.43377 51.5701 6.76674 50.8622 4.67643L48.9679 5.31795ZM48.5692 5C48.7513 5 48.9074 5.12016 48.9581 5.28744L50.872 4.70695C50.5726 3.71993 49.6564 3 48.5692 3V5ZM48.1805 5.28644C48.2323 5.11905 48.3885 5 48.5692 5V3C47.4857 3 46.5734 3.71518 46.27 4.69476L48.1805 5.28644ZM42.4559 11.0322C45.1364 10.1247 47.2673 7.99208 48.1727 5.31049L46.2778 4.67071C45.5718 6.76158 43.9044 8.43025 41.8146 9.13777L42.4559 11.0322ZM42.1381 11.4308C42.1381 11.2489 42.2584 11.0926 42.4255 11.0419L41.845 9.12801C40.8578 9.42742 40.1381 10.3441 40.1381 11.4308H42.1381ZM42.4239 11.819C42.2576 11.7676 42.1382 11.6119 42.1381 11.4302L40.1381 11.4314C40.1387 12.5138 40.8527 13.4267 41.8334 13.7298L42.4239 11.819ZM21.3935 25.5844C21.4341 25.5136 21.4864 25.4371 21.5531 25.3546L19.9975 24.0976C19.873 24.2516 19.7583 24.4154 19.6583 24.5899L21.3935 25.5844ZM13.3427 26.0872H20.5259V24.0872H13.3427V26.0872ZM22.7671 14.2485L12.6355 24.3801L14.0498 25.7943L24.1814 15.6627L22.7671 14.2485ZM24.4692 13.5439C23.8311 13.5439 23.2188 13.7974 22.7676 14.248L24.1809 15.6632C24.257 15.5871 24.361 15.5439 24.4692 15.5439V13.5439ZM29.5006 13.5439H24.4692V15.5439H29.5006V13.5439ZM21.5862 25.3142L30.2599 15.1947L28.7413 13.8932L20.0676 24.0127L21.5862 25.3142ZM21.5445 25.3632L21.5884 25.3116L20.0654 24.0153L20.0214 24.067L21.5445 25.3632ZM21.5945 25.2995L21.6022 25.2885L19.9637 24.1416L19.956 24.1526L21.5945 25.2995ZM40.591 24.4364L32.7593 15.2994L31.2407 16.601L39.0725 25.738L40.591 24.4364ZM24.1689 26.0872H39.8318V24.0872H24.1689V26.0872ZM31.2407 15.2994L23.4097 24.4364L24.9282 25.7379L32.7593 16.601L31.2407 15.2994ZM44.3389 24.585C44.2444 24.4223 44.1358 24.2643 44.013 24.1117L42.4547 25.3654C42.5158 25.4413 42.5669 25.5162 42.6094 25.5894L44.3389 24.585ZM50.6573 24.0872H43.4741V26.0872H50.6573V24.0872ZM39.8186 15.6627L49.9502 25.7943L51.3645 24.3801L41.2329 14.2485L39.8186 15.6627ZM39.5308 15.5439C39.639 15.5439 39.743 15.5871 39.8191 15.6632L41.2324 14.248C40.7812 13.7974 40.1689 13.5439 39.5308 13.5439V15.5439ZM34.4994 15.5439H39.5308V13.5439H34.4994V15.5439ZM43.9408 24.0229L35.2587 13.8932L33.7401 15.1947L42.4222 25.3245L43.9408 24.0229ZM44.0117 24.1101L43.9594 24.0453L42.4037 25.3021L42.456 25.367L44.0117 24.1101ZM12.5742 28.578L26.9835 44.1873L28.4531 42.8307L14.0437 27.2214L12.5742 28.578ZM20.5138 26.8997H13.309V28.8997H20.5138V26.8997ZM28.6262 43.09L21.4218 27.4806L19.6058 28.3187L26.8103 43.9281L28.6262 43.09ZM32.908 45.6561L24.5203 27.4806L22.7043 28.3187L31.092 46.4941L32.908 45.6561ZM39.4808 27.4806L31.092 45.656L32.908 46.4941L41.2967 28.3187L39.4808 27.4806ZM23.6123 28.8997H40.3888V26.8997H23.6123V28.8997ZM42.5783 27.4806L35.3738 43.09L37.1897 43.9281L44.3942 28.3187L42.5783 27.4806ZM50.691 26.8997H43.4862V28.8997H50.691V26.8997ZM37.0165 44.1873L51.4258 28.578L49.9563 27.2214L35.5469 42.8307L37.0165 44.1873ZM55.3544 43.7922C53.9485 43.3238 52.8264 42.2014 52.3579 40.7957L50.4605 41.428C51.128 43.4309 52.7187 45.0221 54.7222 45.6897L55.3544 43.7922ZM57 46.0751C57 45.0394 56.3372 44.1194 55.3542 43.7922L54.7225 45.6898C54.8879 45.7448 55 45.9 55 46.0751H57ZM55.3547 48.3578C56.3369 48.0302 57 47.1111 57 46.0751H55C55 46.2497 54.8882 46.4051 54.7219 46.4606L55.3547 48.3578ZM52.3579 51.3544C52.8263 49.9485 53.9487 48.8264 55.3545 48.3579L54.7222 46.4605C52.7192 47.128 51.128 48.7187 50.4605 50.7222L52.3579 51.3544ZM50.0751 53C51.1111 53 52.0302 52.3369 52.3578 51.3547L50.4606 50.7219C50.4051 50.8882 50.2497 51 50.0751 51V53ZM47.7922 51.3542C48.1194 52.3372 49.0394 53 50.0751 53V51C49.9 51 49.7448 50.8879 49.6898 50.7225L47.7922 51.3542ZM44.7957 48.3579C46.2013 48.8263 47.3238 49.9488 47.7923 51.3545L49.6897 50.7222C49.0221 48.7192 47.431 47.128 45.428 46.4605L44.7957 48.3579ZM43.1501 46.0751C43.1501 47.1111 43.8133 48.0302 44.7954 48.3578L45.4282 46.4606C45.2619 46.4051 45.1501 46.2497 45.1501 46.0751H43.1501ZM44.796 43.7922C43.8129 44.1194 43.1501 45.0394 43.1501 46.0751H45.1501C45.1501 45.9 45.2622 45.7448 45.4277 45.6898L44.796 43.7922ZM47.7923 40.7957C47.3238 42.2013 46.2013 43.3238 44.7957 43.7923L45.428 45.6897C47.431 45.0221 49.0221 43.431 49.6897 41.428L47.7923 40.7957ZM50.0751 39.1501C49.0394 39.1501 48.1194 39.8129 47.7922 40.796L49.6898 41.4277C49.7448 41.2622 49.9 41.1501 50.0751 41.1501V39.1501ZM52.3578 40.7954C52.0302 39.8133 51.1111 39.1501 50.0751 39.1501V41.1501C50.2497 41.1501 50.4051 41.2619 50.4606 41.4282L52.3578 40.7954ZM22.1911 42.2777C20.1003 41.5721 18.4317 39.9048 17.7242 37.8149L15.8298 38.4563C16.7373 41.1367 18.8699 43.2677 21.5516 44.1727L22.1911 42.2777ZM23.8616 44.5692C23.8616 43.4862 23.1472 42.5735 22.1672 42.27L21.5755 44.1805C21.7425 44.2322 21.8616 44.3881 21.8616 44.5692H23.8616ZM22.155 46.872C23.1426 46.5725 23.8616 45.6555 23.8616 44.5692H21.8616C21.8616 44.7515 21.7412 44.9075 21.5745 44.9581L22.155 46.872ZM17.7223 51.3292C18.4278 49.2386 20.0954 47.5701 22.1856 46.8622L21.5439 44.9679C18.8638 45.8757 16.7324 48.0078 15.8273 50.6896L17.7223 51.3292ZM15.4308 53C16.5143 53 17.4266 52.2848 17.73 51.3052L15.8195 50.7136C15.7677 50.881 15.6115 51 15.4308 51V53ZM13.128 51.2931C13.4274 52.2802 14.3441 53 15.4308 53V51C15.2489 51 15.0926 50.8797 15.0419 50.7126L13.128 51.2931ZM8.67071 46.8603C10.7616 47.5662 12.4302 49.2336 13.1378 51.3235L15.0322 50.6821C14.1247 48.0017 11.9921 45.8708 9.31049 44.9654L8.67071 46.8603ZM7 44.5692C7 45.6518 7.71437 46.5653 8.69549 46.8683L9.28571 44.9574C9.11913 44.9059 9 44.7501 9 44.5692H7ZM8.70695 42.2664C7.71993 42.5658 7 43.482 7 44.5692H9C9 44.3871 9.12016 44.2311 9.28744 44.1803L8.70695 42.2664ZM13.1397 37.8088C12.4338 39.8996 10.7663 41.5684 8.67639 42.2762L9.318 44.1705C11.9983 43.2627 14.1292 41.1302 15.0346 38.4486L13.1397 37.8088ZM15.4308 36.1381C14.3475 36.1381 13.4353 36.8534 13.1319 37.8328L15.0424 38.4245C15.0943 38.257 15.2506 38.1381 15.4308 38.1381V36.1381ZM17.734 37.8455C17.4346 36.8578 16.5178 36.1381 15.4308 36.1381V38.1381C15.6131 38.1381 15.7693 38.2584 15.82 38.4257L17.734 37.8455Z" fill="white" fill-opacity="0.0782099" mask="url(#path-1-inside-1_0_10685)"/>
</g>
<defs>
<filter id="filter0_d_0_10685" x="0" y="0" width="64" height="64" filterUnits="userSpaceOnUse" color-interpolation-filters="sRGB">
<feFlood flood-opacity="0" result="BackgroundImageFix"/>
<feColorMatrix in="SourceAlpha" type="matrix" values="0 0 0 0 0 0 0 0 0 0 0 0 0 0 0 0 0 0 127 0" result="hardAlpha"/>
<feOffset dy="4"/>
<feGaussianBlur stdDeviation="4"/>
<feColorMatrix type="matrix" values="0 0 0 0 0 0 0 0 0 0.0037911 0 0 0 0 0.170599 0 0 0 0.157184 0"/>
<feBlend mode="normal" in2="BackgroundImageFix" result="effect1_dropShadow_0_10685"/>
<feBlend mode="normal" in="SourceGraphic" in2="effect1_dropShadow_0_10685" result="shape"/>
</filter>
<linearGradient id="paint0_linear_0_10685" x1="8" y1="4" x2="8" y2="52" gradientUnits="userSpaceOnUse">
<stop stop-color="#4D4F95"/>
<stop offset="1" stop-color="#2B2D66"/>
</linearGradient>
<linearGradient id="paint1_linear_0_10685" x1="56" y1="4" x2="8" y2="4" gradientUnits="userSpaceOnUse">
<stop stop-color="#6357F6"/>
<stop offset="1" stop-color="#E6606C"/>
</linearGradient>
</defs>
</svg>
