<svg width="48" height="48" viewBox="0 0 48 48" fill="none" xmlns="http://www.w3.org/2000/svg">
<rect width="48" height="48" rx="24" fill="#6357F6"/>
<path fill-rule="evenodd" clip-rule="evenodd" d="M24 13C28.006 13 31.267 16.141 31.479 20.092C34.049 20.555 36 22.798 36 25.5C36 28.537 33.537 31 30.5 31H27.024C27.084 30.38 27.232 29.671 27.521 29H30.5C32.43 29 34 27.43 34 25.5C34 22.531 31.312 21.734 29.567 21.78C29.891 17.797 27.453 15 24 15C20.641 15 18.266 17.562 18.433 21.78C16.479 21.667 14 22.703 14 25.5C14 27.43 15.57 29 17.5 29H19.844C19.569 29.717 19.384 30.404 19.266 31H17.5C14.463 31 12 28.537 12 25.5C12 22.798 13.951 20.555 16.521 20.092C16.733 16.141 19.994 13 24 13ZM28.042 33H25.042C25.042 33 24.229 26.906 28.854 25C21.042 25 21.042 33 21.042 33H18.042L23.021 37L28.042 33Z" fill="white"/>
</svg>
