<svg width="64" height="61" viewBox="0 0 64 61" fill="none" xmlns="http://www.w3.org/2000/svg">
<g filter="url(#filter0_d_0_5377)">
<mask id="path-1-inside-1_0_5377" fill="white">
<path fill-rule="evenodd" clip-rule="evenodd" d="M25.3895 17.4097L24.7303 23.1275C24.6728 23.6263 24.8907 24.1168 25.3008 24.4116C25.711 24.7067 26.2493 24.7603 26.7107 24.5522L32.0003 22.1643L37.2894 24.5522L37.2912 24.5531C37.3337 24.5731 38.0232 24.8982 38.6993 24.4116C39.1095 24.1168 39.3277 23.6263 39.2702 23.1275L38.6107 17.4097L42.5394 13.1677C42.8821 12.7979 42.9971 12.274 42.8404 11.7966C42.6836 11.3195 42.2797 10.9624 41.7831 10.8627L36.086 9.71675L33.2241 4.70694C32.9747 4.27009 32.5071 4 32.0003 4C31.4931 4 31.0254 4.27009 30.776 4.70694L27.9145 9.71675L22.217 10.8627C21.7204 10.9624 21.3165 11.3195 21.1598 11.7966C21.0034 12.2737 21.118 12.7979 21.4608 13.1677L25.3895 17.4097ZM42.1017 20.5031C41.7733 20.1482 41.663 19.6461 41.8132 19.1882C41.9633 18.7307 42.3508 18.3885 42.8268 18.2928L46.07 17.6402L47.6992 14.7882C47.9387 14.3691 48.387 14.1103 48.8733 14.1103C49.3593 14.1103 49.8079 14.3695 50.047 14.7882L51.6763 17.6402L54.9194 18.2928C55.3958 18.3885 55.7833 18.7307 55.9334 19.1882C56.0839 19.6461 55.9737 20.1482 55.6452 20.5031L53.4088 22.9183L53.7838 26.1739C53.8391 26.6517 53.63 27.1222 53.2367 27.405C52.5833 27.8749 51.917 27.5551 51.8856 27.54L51.8846 27.5395L48.8733 26.18L45.8623 27.5395C45.42 27.7393 44.9036 27.6878 44.5099 27.405C44.117 27.1222 43.9079 26.6517 43.9628 26.1739L44.3382 22.9183L42.1017 20.5031ZM48.4664 41.6427V32.6965C48.4664 32.086 48.0665 31.5593 47.5011 31.3747C42.506 29.6465 37.2905 28.7703 31.9988 28.7703C26.7071 28.7703 21.4915 29.6465 16.4965 31.3747C15.931 31.5593 15.5311 32.086 15.5311 32.6965V41.6427C15.5311 42.6175 16.5148 43.2831 17.4263 42.9485C22.1218 41.3244 27.0242 40.5007 31.9988 40.5007C36.9734 40.5007 41.8762 41.3244 46.5717 42.9485C47.4758 43.2806 48.4664 42.6255 48.4664 41.6427ZM53.2 41.8714L55.8426 46.9719C56.378 48.0058 55.4676 49.2 54.3155 48.9716L46.7848 47.4813C46.1267 47.3504 45.6543 46.7798 45.6543 46.1163V45.5805C46.1073 45.7393 46.5797 45.819 47.0587 45.819C49.3856 45.819 51.2789 43.9455 51.2789 41.6431V35.0939L54.8667 35.8049C55.8389 35.997 56.3103 37.1002 55.7723 37.9246L53.2 41.8714ZM12.7183 35.095V41.6431C12.7183 43.9861 14.6438 45.8201 16.9377 45.8201C17.4178 45.8201 17.891 45.7386 18.3458 45.5798V46.1163C18.3458 46.7798 17.8723 47.3504 17.2153 47.4813L9.68462 48.9716C8.53253 49.2 7.6225 48.0055 8.15753 46.9719L10.7994 41.8714L8.22711 37.9246C7.68989 37.1005 8.1612 35.997 9.13348 35.8049L12.7183 35.095ZM10.216 26.1735L10.5914 22.9183L8.35455 20.5028C8.02607 20.1482 7.91584 19.6461 8.06598 19.1882C8.21649 18.7307 8.60394 18.3885 9.08001 18.2924L12.3235 17.6402L13.9528 14.7882C14.1919 14.3691 14.6405 14.1103 15.1265 14.1103C15.6124 14.1103 16.061 14.3691 16.3002 14.7882L17.9294 17.6402L21.1729 18.2924C21.649 18.3881 22.0365 18.7307 22.187 19.1882C22.3371 19.6461 22.2269 20.1482 21.8984 20.5028L19.662 22.9183L20.037 26.1735C20.0923 26.6517 19.8832 27.1222 19.4898 27.405C18.8364 27.8749 18.1702 27.5551 18.1388 27.54L18.1378 27.5395L15.1265 26.18L12.1155 27.5395C11.6731 27.7393 11.1564 27.6878 10.7631 27.405C10.3702 27.1222 10.1611 26.6517 10.216 26.1735Z"/>
</mask>
<path fill-rule="evenodd" clip-rule="evenodd" d="M25.3895 17.4097L24.7303 23.1275C24.6728 23.6263 24.8907 24.1168 25.3008 24.4116C25.711 24.7067 26.2493 24.7603 26.7107 24.5522L32.0003 22.1643L37.2894 24.5522L37.2912 24.5531C37.3337 24.5731 38.0232 24.8982 38.6993 24.4116C39.1095 24.1168 39.3277 23.6263 39.2702 23.1275L38.6107 17.4097L42.5394 13.1677C42.8821 12.7979 42.9971 12.274 42.8404 11.7966C42.6836 11.3195 42.2797 10.9624 41.7831 10.8627L36.086 9.71675L33.2241 4.70694C32.9747 4.27009 32.5071 4 32.0003 4C31.4931 4 31.0254 4.27009 30.776 4.70694L27.9145 9.71675L22.217 10.8627C21.7204 10.9624 21.3165 11.3195 21.1598 11.7966C21.0034 12.2737 21.118 12.7979 21.4608 13.1677L25.3895 17.4097ZM42.1017 20.5031C41.7733 20.1482 41.663 19.6461 41.8132 19.1882C41.9633 18.7307 42.3508 18.3885 42.8268 18.2928L46.07 17.6402L47.6992 14.7882C47.9387 14.3691 48.387 14.1103 48.8733 14.1103C49.3593 14.1103 49.8079 14.3695 50.047 14.7882L51.6763 17.6402L54.9194 18.2928C55.3958 18.3885 55.7833 18.7307 55.9334 19.1882C56.0839 19.6461 55.9737 20.1482 55.6452 20.5031L53.4088 22.9183L53.7838 26.1739C53.8391 26.6517 53.63 27.1222 53.2367 27.405C52.5833 27.8749 51.917 27.5551 51.8856 27.54L51.8846 27.5395L48.8733 26.18L45.8623 27.5395C45.42 27.7393 44.9036 27.6878 44.5099 27.405C44.117 27.1222 43.9079 26.6517 43.9628 26.1739L44.3382 22.9183L42.1017 20.5031ZM48.4664 41.6427V32.6965C48.4664 32.086 48.0665 31.5593 47.5011 31.3747C42.506 29.6465 37.2905 28.7703 31.9988 28.7703C26.7071 28.7703 21.4915 29.6465 16.4965 31.3747C15.931 31.5593 15.5311 32.086 15.5311 32.6965V41.6427C15.5311 42.6175 16.5148 43.2831 17.4263 42.9485C22.1218 41.3244 27.0242 40.5007 31.9988 40.5007C36.9734 40.5007 41.8762 41.3244 46.5717 42.9485C47.4758 43.2806 48.4664 42.6255 48.4664 41.6427ZM53.2 41.8714L55.8426 46.9719C56.378 48.0058 55.4676 49.2 54.3155 48.9716L46.7848 47.4813C46.1267 47.3504 45.6543 46.7798 45.6543 46.1163V45.5805C46.1073 45.7393 46.5797 45.819 47.0587 45.819C49.3856 45.819 51.2789 43.9455 51.2789 41.6431V35.0939L54.8667 35.8049C55.8389 35.997 56.3103 37.1002 55.7723 37.9246L53.2 41.8714ZM12.7183 35.095V41.6431C12.7183 43.9861 14.6438 45.8201 16.9377 45.8201C17.4178 45.8201 17.891 45.7386 18.3458 45.5798V46.1163C18.3458 46.7798 17.8723 47.3504 17.2153 47.4813L9.68462 48.9716C8.53253 49.2 7.6225 48.0055 8.15753 46.9719L10.7994 41.8714L8.22711 37.9246C7.68989 37.1005 8.1612 35.997 9.13348 35.8049L12.7183 35.095ZM10.216 26.1735L10.5914 22.9183L8.35455 20.5028C8.02607 20.1482 7.91584 19.6461 8.06598 19.1882C8.21649 18.7307 8.60394 18.3885 9.08001 18.2924L12.3235 17.6402L13.9528 14.7882C14.1919 14.3691 14.6405 14.1103 15.1265 14.1103C15.6124 14.1103 16.061 14.3691 16.3002 14.7882L17.9294 17.6402L21.1729 18.2924C21.649 18.3881 22.0365 18.7307 22.187 19.1882C22.3371 19.6461 22.2269 20.1482 21.8984 20.5028L19.662 22.9183L20.037 26.1735C20.0923 26.6517 19.8832 27.1222 19.4898 27.405C18.8364 27.8749 18.1702 27.5551 18.1388 27.54L18.1378 27.5395L15.1265 26.18L12.1155 27.5395C11.6731 27.7393 11.1564 27.6878 10.7631 27.405C10.3702 27.1222 10.1611 26.6517 10.216 26.1735Z" fill="url(#paint0_linear_0_5377)"/>
<path fill-rule="evenodd" clip-rule="evenodd" d="M25.3895 17.4097L24.7303 23.1275C24.6728 23.6263 24.8907 24.1168 25.3008 24.4116C25.711 24.7067 26.2493 24.7603 26.7107 24.5522L32.0003 22.1643L37.2894 24.5522L37.2912 24.5531C37.3337 24.5731 38.0232 24.8982 38.6993 24.4116C39.1095 24.1168 39.3277 23.6263 39.2702 23.1275L38.6107 17.4097L42.5394 13.1677C42.8821 12.7979 42.9971 12.274 42.8404 11.7966C42.6836 11.3195 42.2797 10.9624 41.7831 10.8627L36.086 9.71675L33.2241 4.70694C32.9747 4.27009 32.5071 4 32.0003 4C31.4931 4 31.0254 4.27009 30.776 4.70694L27.9145 9.71675L22.217 10.8627C21.7204 10.9624 21.3165 11.3195 21.1598 11.7966C21.0034 12.2737 21.118 12.7979 21.4608 13.1677L25.3895 17.4097ZM42.1017 20.5031C41.7733 20.1482 41.663 19.6461 41.8132 19.1882C41.9633 18.7307 42.3508 18.3885 42.8268 18.2928L46.07 17.6402L47.6992 14.7882C47.9387 14.3691 48.387 14.1103 48.8733 14.1103C49.3593 14.1103 49.8079 14.3695 50.047 14.7882L51.6763 17.6402L54.9194 18.2928C55.3958 18.3885 55.7833 18.7307 55.9334 19.1882C56.0839 19.6461 55.9737 20.1482 55.6452 20.5031L53.4088 22.9183L53.7838 26.1739C53.8391 26.6517 53.63 27.1222 53.2367 27.405C52.5833 27.8749 51.917 27.5551 51.8856 27.54L51.8846 27.5395L48.8733 26.18L45.8623 27.5395C45.42 27.7393 44.9036 27.6878 44.5099 27.405C44.117 27.1222 43.9079 26.6517 43.9628 26.1739L44.3382 22.9183L42.1017 20.5031ZM48.4664 41.6427V32.6965C48.4664 32.086 48.0665 31.5593 47.5011 31.3747C42.506 29.6465 37.2905 28.7703 31.9988 28.7703C26.7071 28.7703 21.4915 29.6465 16.4965 31.3747C15.931 31.5593 15.5311 32.086 15.5311 32.6965V41.6427C15.5311 42.6175 16.5148 43.2831 17.4263 42.9485C22.1218 41.3244 27.0242 40.5007 31.9988 40.5007C36.9734 40.5007 41.8762 41.3244 46.5717 42.9485C47.4758 43.2806 48.4664 42.6255 48.4664 41.6427ZM53.2 41.8714L55.8426 46.9719C56.378 48.0058 55.4676 49.2 54.3155 48.9716L46.7848 47.4813C46.1267 47.3504 45.6543 46.7798 45.6543 46.1163V45.5805C46.1073 45.7393 46.5797 45.819 47.0587 45.819C49.3856 45.819 51.2789 43.9455 51.2789 41.6431V35.0939L54.8667 35.8049C55.8389 35.997 56.3103 37.1002 55.7723 37.9246L53.2 41.8714ZM12.7183 35.095V41.6431C12.7183 43.9861 14.6438 45.8201 16.9377 45.8201C17.4178 45.8201 17.891 45.7386 18.3458 45.5798V46.1163C18.3458 46.7798 17.8723 47.3504 17.2153 47.4813L9.68462 48.9716C8.53253 49.2 7.6225 48.0055 8.15753 46.9719L10.7994 41.8714L8.22711 37.9246C7.68989 37.1005 8.1612 35.997 9.13348 35.8049L12.7183 35.095ZM10.216 26.1735L10.5914 22.9183L8.35455 20.5028C8.02607 20.1482 7.91584 19.6461 8.06598 19.1882C8.21649 18.7307 8.60394 18.3885 9.08001 18.2924L12.3235 17.6402L13.9528 14.7882C14.1919 14.3691 14.6405 14.1103 15.1265 14.1103C15.6124 14.1103 16.061 14.3691 16.3002 14.7882L17.9294 17.6402L21.1729 18.2924C21.649 18.3881 22.0365 18.7307 22.187 19.1882C22.3371 19.6461 22.2269 20.1482 21.8984 20.5028L19.662 22.9183L20.037 26.1735C20.0923 26.6517 19.8832 27.1222 19.4898 27.405C18.8364 27.8749 18.1702 27.5551 18.1388 27.54L18.1378 27.5395L15.1265 26.18L12.1155 27.5395C11.6731 27.7393 11.1564 27.6878 10.7631 27.405C10.3702 27.1222 10.1611 26.6517 10.216 26.1735Z" fill="url(#paint1_linear_0_5377)"/>
<path d="M24.7303 23.1275L23.7369 23.013L23.7369 23.013L24.7303 23.1275ZM25.3895 17.4097L26.3829 17.5242L26.4355 17.0675L26.1231 16.7302L25.3895 17.4097ZM25.3008 24.4116L25.8849 23.5999L25.8844 23.5995L25.3008 24.4116ZM26.7107 24.5522L27.1219 25.4638L27.1222 25.4637L26.7107 24.5522ZM32.0003 22.1643L32.4117 21.2528L32.0003 21.0671L31.5888 21.2528L32.0003 22.1643ZM37.2894 24.5522L37.7128 23.6462L37.7009 23.6408L37.2894 24.5522ZM37.2912 24.5531L37.7177 23.6486L37.7146 23.6471L37.2912 24.5531ZM38.6993 24.4116L38.1157 23.5995L38.1152 23.5999L38.6993 24.4116ZM39.2702 23.1275L40.2636 23.013L40.2636 23.0129L39.2702 23.1275ZM38.6107 17.4097L37.877 16.7302L37.5646 17.0675L37.6173 17.5243L38.6107 17.4097ZM42.5394 13.1677L41.806 12.4879L41.8057 12.4882L42.5394 13.1677ZM42.8404 11.7966L43.7905 11.4847L43.7904 11.4845L42.8404 11.7966ZM41.7831 10.8627L41.5859 11.8431L41.5863 11.8431L41.7831 10.8627ZM36.086 9.71675L35.2177 10.2128L35.4432 10.6075L35.8888 10.6971L36.086 9.71675ZM33.2241 4.70694L32.3557 5.20271L32.3558 5.20297L33.2241 4.70694ZM30.776 4.70694L31.6444 5.20292L31.6445 5.20271L30.776 4.70694ZM27.9145 9.71675L28.1117 10.6971L28.5573 10.6075L28.7828 10.2127L27.9145 9.71675ZM22.217 10.8627L22.4138 11.8431L22.4142 11.8431L22.217 10.8627ZM21.1598 11.7966L20.2097 11.4845L20.2095 11.4851L21.1598 11.7966ZM21.4608 13.1677L22.1945 12.4882L22.1942 12.4879L21.4608 13.1677ZM41.8132 19.1882L40.863 18.8764L40.863 18.8766L41.8132 19.1882ZM42.1017 20.5031L41.3678 21.1824L41.368 21.1826L42.1017 20.5031ZM42.8268 18.2928L43.0239 19.2732L43.0241 19.2731L42.8268 18.2928ZM46.07 17.6402L46.2672 18.6206L46.7128 18.5309L46.9383 18.1363L46.07 17.6402ZM47.6992 14.7882L46.831 14.292L46.8309 14.2922L47.6992 14.7882ZM50.047 14.7882L49.1786 15.2841L49.1787 15.2842L50.047 14.7882ZM51.6763 17.6402L50.808 18.1363L51.0334 18.5309L51.479 18.6206L51.6763 17.6402ZM54.9194 18.2928L54.7221 19.2731L54.7224 19.2732L54.9194 18.2928ZM55.9334 19.1882L54.9833 19.5001L54.9834 19.5005L55.9334 19.1882ZM55.6452 20.5031L56.379 21.1826L56.3791 21.1824L55.6452 20.5031ZM53.4088 22.9183L52.6751 22.2389L52.3628 22.5761L52.4154 23.0328L53.4088 22.9183ZM53.7838 26.1739L52.7904 26.2883L52.7904 26.2888L53.7838 26.1739ZM53.2367 27.405L52.6529 26.5931L52.6529 26.5931L53.2367 27.405ZM51.8856 27.54L52.3183 26.6384L52.3181 26.6383L51.8856 27.54ZM51.8846 27.5395L52.3171 26.6379L52.3067 26.6329L52.2961 26.6281L51.8846 27.5395ZM48.8733 26.18L49.2848 25.2686L48.8733 25.0828L48.4618 25.2686L48.8733 26.18ZM45.8623 27.5395L45.4508 26.6281L45.4508 26.6281L45.8623 27.5395ZM44.5099 27.405L43.9258 28.2167L43.9265 28.2172L44.5099 27.405ZM43.9628 26.1739L42.9694 26.0593L42.9694 26.0596L43.9628 26.1739ZM44.3382 22.9183L45.3316 23.0329L45.3843 22.5762L45.0719 22.2389L44.3382 22.9183ZM47.5011 31.3747L47.1742 32.3198L47.1825 32.3226L47.1909 32.3254L47.5011 31.3747ZM16.4965 31.3747L16.8067 32.3254L16.8151 32.3226L16.8234 32.3198L16.4965 31.3747ZM17.4263 42.9485L17.0994 42.0035L17.0905 42.0065L17.0816 42.0098L17.4263 42.9485ZM46.5717 42.9485L46.9164 42.0098L46.9075 42.0066L46.8986 42.0035L46.5717 42.9485ZM55.8426 46.9719L56.7306 46.5121L56.7305 46.5119L55.8426 46.9719ZM53.2 41.8714L52.3623 41.3255L52.044 41.8139L52.3121 42.3315L53.2 41.8714ZM54.3155 48.9716L54.51 47.9907L54.5097 47.9906L54.3155 48.9716ZM46.7848 47.4813L46.5898 48.462L46.5907 48.4622L46.7848 47.4813ZM45.6543 45.5805L45.9851 44.6368L44.6543 44.1703V45.5805H45.6543ZM51.2789 35.0939L51.4733 34.113L50.2789 33.8763V35.0939H51.2789ZM54.8667 35.8049L54.6723 36.7858L54.6728 36.7859L54.8667 35.8049ZM55.7723 37.9246L54.9348 37.3781L54.9345 37.3786L55.7723 37.9246ZM12.7183 35.095H13.7183V33.8776L12.5241 34.1141L12.7183 35.095ZM18.3458 45.5798H19.3458V44.1715L18.0162 44.6357L18.3458 45.5798ZM17.2153 47.4813L17.4095 48.4622L17.4107 48.462L17.2153 47.4813ZM9.68462 48.9716L9.49048 47.9906L9.49016 47.9907L9.68462 48.9716ZM8.15753 46.9719L7.26958 46.512L7.26947 46.5122L8.15753 46.9719ZM10.7994 41.8714L11.6873 42.3314L11.9554 41.8138L11.6371 41.3255L10.7994 41.8714ZM8.22711 37.9246L9.0649 37.3786L9.06481 37.3784L8.22711 37.9246ZM9.13348 35.8049L9.32735 36.7859L9.32772 36.7858L9.13348 35.8049ZM10.5914 22.9183L11.5848 23.0329L11.6374 22.5762L11.3251 22.2389L10.5914 22.9183ZM10.216 26.1735L9.22257 26.0589L9.22253 26.0594L10.216 26.1735ZM8.35455 20.5028L9.08829 19.8233L9.08811 19.8231L8.35455 20.5028ZM8.06598 19.1882L7.11606 18.8757L7.11577 18.8766L8.06598 19.1882ZM9.08001 18.2924L8.88288 17.312L8.8822 17.3122L9.08001 18.2924ZM12.3235 17.6402L12.5207 18.6206L12.9663 18.531L13.1918 18.1363L12.3235 17.6402ZM13.9528 14.7882L14.8211 15.2842L14.8213 15.2838L13.9528 14.7882ZM16.3002 14.7882L15.4316 15.2838L15.4319 15.2842L16.3002 14.7882ZM17.9294 17.6402L17.0611 18.1363L17.2866 18.531L17.7323 18.6206L17.9294 17.6402ZM21.1729 18.2924L20.9758 19.2728L20.9758 19.2728L21.1729 18.2924ZM22.187 19.1882L23.1372 18.8766L23.1369 18.8757L22.187 19.1882ZM21.8984 20.5028L21.1648 19.8231L21.1646 19.8234L21.8984 20.5028ZM19.662 22.9183L18.9282 22.2389L18.6159 22.5762L18.6685 23.0328L19.662 22.9183ZM20.037 26.1735L19.0435 26.2879L19.0436 26.2884L20.037 26.1735ZM19.4898 27.405L18.9061 26.5931L18.906 26.5931L19.4898 27.405ZM18.1388 27.54L18.5715 26.6384L18.5698 26.6376L18.1388 27.54ZM18.1378 27.5395L18.5689 26.6372L18.5591 26.6325L18.5493 26.6281L18.1378 27.5395ZM15.1265 26.18L15.5379 25.2686L15.1265 25.0828L14.715 25.2686L15.1265 26.18ZM12.1155 27.5395L11.704 26.6281L11.704 26.6281L12.1155 27.5395ZM10.7631 27.405L10.179 28.2167L10.1794 28.2169L10.7631 27.405ZM25.7237 23.242L26.3829 17.5242L24.396 17.2951L23.7369 23.013L25.7237 23.242ZM25.8844 23.5995C25.7667 23.515 25.708 23.378 25.7237 23.242L23.7369 23.013C23.6376 23.8747 24.0146 24.7187 24.7173 25.2237L25.8844 23.5995ZM26.2996 23.6407C26.1631 23.7022 26.0042 23.6857 25.8849 23.5999L24.7168 25.2233C25.4178 25.7276 26.3355 25.8185 27.1219 25.4638L26.2996 23.6407ZM31.5888 21.2528L26.2993 23.6408L27.1222 25.4637L32.4117 23.0757L31.5888 21.2528ZM37.7009 23.6408L32.4117 21.2528L31.5888 23.0757L36.8779 25.4637L37.7009 23.6408ZM37.7146 23.6471L37.7127 23.6463L36.866 25.4582L36.8679 25.4591L37.7146 23.6471ZM38.1152 23.5999C38.0129 23.6735 37.9245 23.6831 37.8448 23.6761C37.8006 23.6723 37.7621 23.6628 37.7357 23.6545C37.7232 23.6505 37.7152 23.6473 37.7128 23.6464C37.7117 23.6459 37.7118 23.6459 37.7135 23.6467C37.7155 23.6476 37.7178 23.6487 37.7177 23.6486L36.8648 25.4576C36.949 25.4973 38.1229 26.0584 39.2834 25.2233L38.1152 23.5999ZM38.2768 23.242C38.2924 23.3775 38.2338 23.5147 38.1157 23.5995L39.2829 25.2237C39.9851 24.719 40.363 23.8752 40.2636 23.013L38.2768 23.242ZM37.6173 17.5243L38.2768 23.2421L40.2636 23.0129L39.6041 17.2951L37.6173 17.5243ZM41.8057 12.4882L37.877 16.7302L39.3444 18.0892L43.273 13.8472L41.8057 12.4882ZM41.8903 12.1085C41.9332 12.2392 41.9026 12.3836 41.806 12.4879L43.2727 13.8475C43.8617 13.2122 44.0611 12.3089 43.7905 11.4847L41.8903 12.1085ZM41.5863 11.8431C41.733 11.8726 41.847 11.9769 41.8903 12.1087L43.7904 11.4845C43.5203 10.6621 42.8264 10.0522 41.98 9.88228L41.5863 11.8431ZM35.8888 10.6971L41.5859 11.8431L41.9803 9.88235L36.2832 8.73639L35.8888 10.6971ZM32.3558 5.20297L35.2177 10.2128L36.9543 9.22072L34.0924 4.21091L32.3558 5.20297ZM32.0003 5C32.1516 5 32.286 5.08064 32.3557 5.20271L34.0926 4.21116C33.6635 3.45953 32.8626 3 32.0003 3V5ZM31.6445 5.20271C31.7141 5.08077 31.8484 5 32.0003 5V3C31.1377 3 30.3367 3.4594 29.9076 4.21116L31.6445 5.20271ZM28.7828 10.2127L31.6444 5.20292L29.9077 4.21095L27.0461 9.22077L28.7828 10.2127ZM22.4142 11.8431L28.1117 10.6971L27.7173 8.73639L22.0198 9.88235L22.4142 11.8431ZM22.1098 12.1087C22.1531 11.9769 22.2671 11.8726 22.4138 11.8431L22.0202 9.88228C21.1737 10.0522 20.4799 10.6621 20.2097 11.4845L22.1098 12.1087ZM22.1942 12.4879C22.0979 12.384 22.0671 12.2391 22.11 12.1081L20.2095 11.4851C19.9397 12.3082 20.1381 13.2118 20.7274 13.8475L22.1942 12.4879ZM26.1231 16.7302L22.1945 12.4882L20.7271 13.8472L24.6558 18.0892L26.1231 16.7302ZM40.863 18.8766C40.5991 19.6812 40.7939 20.5622 41.3678 21.1824L42.8356 19.8239C42.7526 19.7342 42.7269 19.611 42.7634 19.4998L40.863 18.8766ZM42.6297 17.3124C41.8044 17.4783 41.1267 18.073 40.863 18.8764L42.7633 19.5001C42.8 19.3884 42.8972 19.2987 43.0239 19.2732L42.6297 17.3124ZM45.8727 16.6599L42.6296 17.3124L43.0241 19.2731L46.2672 18.6206L45.8727 16.6599ZM46.8309 14.2922L45.2017 17.1442L46.9383 18.1363L48.5675 15.2842L46.8309 14.2922ZM48.8733 13.1103C48.0314 13.1103 47.2502 13.5585 46.831 14.292L48.5675 15.2844C48.6273 15.1797 48.7425 15.1103 48.8733 15.1103V13.1103ZM50.9154 14.2923C50.4966 13.559 49.7149 13.1103 48.8733 13.1103V15.1103C49.0036 15.1103 49.1191 15.1799 49.1786 15.2841L50.9154 14.2923ZM52.5446 17.1442L50.9153 14.2922L49.1787 15.2842L50.808 18.1363L52.5446 17.1442ZM55.1167 17.3124L51.8735 16.6599L51.479 18.6206L54.7221 19.2731L55.1167 17.3124ZM56.8836 18.8764C56.6199 18.0729 55.9421 17.4782 55.1163 17.3124L54.7224 19.2732C54.8496 19.2987 54.9467 19.3885 54.9833 19.5001L56.8836 18.8764ZM56.3791 21.1824C56.9531 20.5622 57.148 19.6809 56.8834 18.876L54.9834 19.5005C55.0198 19.6113 54.9943 19.7342 54.9113 19.8239L56.3791 21.1824ZM54.1425 23.5978L56.379 21.1826L54.9115 19.8237L52.6751 22.2389L54.1425 23.5978ZM54.7772 26.0594L54.4022 22.8039L52.4154 23.0328L52.7904 26.2883L54.7772 26.0594ZM53.8204 28.2169C54.5057 27.7242 54.8745 26.9003 54.7772 26.0589L52.7904 26.2888C52.8036 26.4031 52.7542 26.5202 52.6529 26.5931L53.8204 28.2169ZM51.4528 28.4415C51.527 28.4771 52.6796 29.0373 53.8205 28.2169L52.6529 26.5931C52.6018 26.6298 52.5605 26.6449 52.5287 26.6522C52.4942 26.6602 52.4574 26.662 52.4191 26.6585C52.3801 26.6549 52.3462 26.6464 52.3239 26.6392C52.3134 26.6358 52.3073 26.6334 52.3068 26.6332C52.3066 26.6331 52.3078 26.6336 52.3104 26.6348C52.3118 26.6354 52.3133 26.6361 52.3151 26.6369C52.317 26.6378 52.3185 26.6385 52.3183 26.6384L51.4528 28.4415ZM51.4521 28.4411L51.4531 28.4416L52.3181 26.6383L52.3171 26.6379L51.4521 28.4411ZM48.4618 27.0914L51.4732 28.4509L52.2961 26.6281L49.2848 25.2686L48.4618 27.0914ZM46.2738 28.4509L49.2848 27.0914L48.4618 25.2686L45.4508 26.6281L46.2738 28.4509ZM43.9265 28.2172C44.6106 28.7085 45.5062 28.7975 46.2739 28.4509L45.4508 26.6281C45.3337 26.681 45.1966 26.667 45.0933 26.5928L43.9265 28.2172ZM42.9694 26.0596C42.8727 26.9004 43.2411 27.724 43.9258 28.2167L45.094 26.5933C44.9928 26.5205 44.9431 26.403 44.9563 26.2881L42.9694 26.0596ZM43.3448 22.8038L42.9694 26.0593L44.9562 26.2884L45.3316 23.0329L43.3448 22.8038ZM41.368 21.1826L43.6044 23.5978L45.0719 22.2389L42.8355 19.8237L41.368 21.1826ZM47.4664 32.6965V41.6427H49.4664V32.6965H47.4664ZM47.1909 32.3254C47.3582 32.38 47.4664 32.5326 47.4664 32.6965H49.4664C49.4664 31.6394 48.7749 30.7385 47.8114 30.4241L47.1909 32.3254ZM31.9988 29.7703C37.1793 29.7703 42.2844 30.628 47.1742 32.3198L47.8281 30.4297C42.7277 28.6651 37.4017 27.7703 31.9988 27.7703V29.7703ZM16.8234 32.3198C21.7132 30.628 26.8182 29.7703 31.9988 29.7703V27.7703C26.5959 27.7703 21.2699 28.6651 16.1695 30.4297L16.8234 32.3198ZM16.5311 32.6965C16.5311 32.5326 16.6394 32.38 16.8067 32.3254L16.1862 30.4241C15.2227 30.7385 14.5311 31.6394 14.5311 32.6965H16.5311ZM16.5311 41.6427V32.6965H14.5311V41.6427H16.5311ZM17.0816 42.0098C16.8031 42.1121 16.5311 41.9013 16.5311 41.6427H14.5311C14.5311 43.3337 16.2265 44.4542 17.7709 43.8873L17.0816 42.0098ZM31.9988 39.5007C26.9131 39.5007 21.9001 40.3429 17.0994 42.0035L17.7532 43.8936C22.3434 42.3059 27.1354 41.5007 31.9988 41.5007V39.5007ZM46.8986 42.0035C42.0978 40.3429 37.0845 39.5007 31.9988 39.5007V41.5007C36.8622 41.5007 41.6545 42.3059 46.2448 43.8936L46.8986 42.0035ZM47.4664 41.6427C47.4664 41.9012 47.1954 42.1123 46.9164 42.0098L46.2269 43.8872C47.7563 44.4489 49.4664 43.3498 49.4664 41.6427H47.4664ZM56.7305 46.5119L54.088 41.4114L52.3121 42.3315L54.9547 47.4319L56.7305 46.5119ZM54.1211 49.9525C56.0724 50.3394 57.6619 48.3106 56.7306 46.5121L54.9546 47.4317C55.0941 47.7011 54.8629 48.0607 54.51 47.9907L54.1211 49.9525ZM46.5907 48.4622L54.1214 49.9526L54.5097 47.9906L46.979 46.5003L46.5907 48.4622ZM44.6543 46.1163C44.6543 47.2644 45.4713 48.2396 46.5898 48.462L46.9799 46.5005C46.7822 46.4612 46.6543 46.2951 46.6543 46.1163H44.6543ZM44.6543 45.5805V46.1163H46.6543V45.5805H44.6543ZM47.0587 44.819C46.6916 44.819 46.3311 44.7581 45.9851 44.6368L45.3235 46.5242C45.8836 46.7205 46.4679 46.819 47.0587 46.819V44.819ZM50.2789 41.6431C50.2789 43.3833 48.8433 44.819 47.0587 44.819V46.819C49.928 46.819 52.2789 44.5077 52.2789 41.6431H50.2789ZM50.2789 35.0939V41.6431H52.2789V35.0939H50.2789ZM55.061 34.8239L51.4733 34.113L51.0845 36.0749L54.6723 36.7858L55.061 34.8239ZM56.6098 38.4711C57.5414 37.0433 56.7162 35.151 55.0605 34.8238L54.6728 36.7859C54.9617 36.843 55.0791 37.157 54.9348 37.3781L56.6098 38.4711ZM54.0378 42.4174L56.6101 38.4706L54.9345 37.3786L52.3623 41.3255L54.0378 42.4174ZM13.7183 41.6431V35.095H11.7183V41.6431H13.7183ZM16.9377 44.8201C15.1752 44.8201 13.7183 43.4132 13.7183 41.6431H11.7183C11.7183 44.559 14.1124 46.8201 16.9377 46.8201V44.8201ZM18.0162 44.6357C17.6654 44.7581 17.3035 44.8201 16.9377 44.8201V46.8201C17.5321 46.8201 18.1166 46.719 18.6754 46.5239L18.0162 44.6357ZM19.3458 46.1163V45.5798H17.3458V46.1163H19.3458ZM17.4107 48.462C18.5271 48.2396 19.3458 47.2652 19.3458 46.1163H17.3458C17.3458 46.2943 17.2175 46.4612 17.02 46.5005L17.4107 48.462ZM9.87876 49.9526L17.4095 48.4622L17.0212 46.5003L9.49048 47.9906L9.87876 49.9526ZM7.26947 46.5122C6.33892 48.3098 7.92726 50.3395 9.87908 49.9525L9.49016 47.9907C9.13781 48.0606 8.90609 47.7011 9.0456 47.4316L7.26947 46.5122ZM9.9114 41.4115L7.26958 46.512L9.04549 47.4318L11.6873 42.3314L9.9114 41.4115ZM7.38933 38.4706L9.96158 42.4174L11.6371 41.3255L9.0649 37.3786L7.38933 38.4706ZM8.93961 34.8238C7.28396 35.151 6.4589 37.0434 7.38942 38.4707L9.06481 37.3784C8.92087 37.1577 9.03843 36.843 9.32735 36.7859L8.93961 34.8238ZM12.5241 34.1141L8.93924 34.8239L9.32772 36.7858L12.9125 36.076L12.5241 34.1141ZM9.59794 22.8038L9.22257 26.0589L11.2094 26.288L11.5848 23.0329L9.59794 22.8038ZM7.62082 21.1822L9.85762 23.5978L11.3251 22.2389L9.08829 19.8233L7.62082 21.1822ZM7.11577 18.8766C6.85198 19.6811 7.04654 20.5624 7.621 21.1824L9.08811 19.8231C9.00559 19.7341 8.9797 19.6111 9.0162 19.4998L7.11577 18.8766ZM8.8822 17.3122C8.05737 17.4786 7.38016 18.073 7.11607 18.8757L9.0159 19.5007C9.05283 19.3885 9.15052 19.2984 9.27782 19.2727L8.8822 17.3122ZM12.1264 16.6599L8.88288 17.312L9.27714 19.2728L12.5207 18.6206L12.1264 16.6599ZM13.0845 14.2922L11.4552 17.1442L13.1918 18.1363L14.8211 15.2842L13.0845 14.2922ZM15.1265 13.1103C14.2853 13.1103 13.5032 13.5583 13.0842 14.2926L14.8213 15.2838C14.8806 15.1799 14.9958 15.1103 15.1265 15.1103V13.1103ZM17.1687 14.2926C16.7497 13.5583 15.9677 13.1103 15.1265 13.1103V15.1103C15.2572 15.1103 15.3723 15.1799 15.4316 15.2838L17.1687 14.2926ZM18.7977 17.1442L17.1685 14.2922L15.4319 15.2842L17.0611 18.1363L18.7977 17.1442ZM21.3701 17.312L18.1266 16.6599L17.7323 18.6206L20.9758 19.2728L21.3701 17.312ZM23.1369 18.8757C22.873 18.0735 22.196 17.4781 21.37 17.312L20.9758 19.2728C21.1021 19.2982 21.2 19.388 21.2371 19.5007L23.1369 18.8757ZM22.632 21.1824C23.2064 20.5624 23.401 19.6811 23.1372 18.8766L21.2368 19.4998C21.2733 19.6111 21.2474 19.7341 21.1648 19.8231L22.632 21.1824ZM20.3958 23.5977L22.6322 21.1822L21.1646 19.8234L18.9282 22.2389L20.3958 23.5977ZM21.0304 26.059L20.6554 22.8039L18.6685 23.0328L19.0435 26.2879L21.0304 26.059ZM20.0736 28.2169C20.759 27.7241 21.1277 26.9001 21.0303 26.0586L19.0436 26.2884C19.0569 26.4032 19.0073 26.5203 18.9061 26.5931L20.0736 28.2169ZM17.706 28.4415C17.7802 28.4771 18.9328 29.0373 20.0737 28.2169L18.906 26.5931C18.855 26.6298 18.8137 26.6449 18.7819 26.6522C18.7474 26.6602 18.7106 26.662 18.6723 26.6585C18.6333 26.6549 18.5994 26.6464 18.5771 26.6392C18.5666 26.6359 18.5605 26.6334 18.56 26.6332C18.5598 26.6331 18.561 26.6336 18.5636 26.6348C18.565 26.6354 18.5665 26.6361 18.5683 26.6369C18.5702 26.6378 18.5717 26.6386 18.5715 26.6384L17.706 28.4415ZM17.7067 28.4418L17.7077 28.4423L18.5698 26.6376L18.5689 26.6372L17.7067 28.4418ZM14.715 27.0914L17.7263 28.4509L18.5493 26.6281L15.5379 25.2686L14.715 27.0914ZM12.527 28.4509L15.538 27.0914L14.715 25.2686L11.704 26.6281L12.527 28.4509ZM10.1794 28.2169C10.8634 28.7087 11.7596 28.7975 12.527 28.4509L11.704 26.6281C11.5867 26.6811 11.4495 26.6669 11.3469 26.5931L10.1794 28.2169ZM9.22253 26.0594C9.12593 26.9002 9.49419 27.7239 10.179 28.2167L11.3472 26.5933C11.2461 26.5206 11.1962 26.4031 11.2095 26.2876L9.22253 26.0594Z" fill="white" fill-opacity="0.0782099" mask="url(#path-1-inside-1_0_5377)"/>
</g>
<defs>
<filter id="filter0_d_0_5377" x="0" y="0" width="64" height="61" filterUnits="userSpaceOnUse" color-interpolation-filters="sRGB">
<feFlood flood-opacity="0" result="BackgroundImageFix"/>
<feColorMatrix in="SourceAlpha" type="matrix" values="0 0 0 0 0 0 0 0 0 0 0 0 0 0 0 0 0 0 127 0" result="hardAlpha"/>
<feOffset dy="4"/>
<feGaussianBlur stdDeviation="4"/>
<feColorMatrix type="matrix" values="0 0 0 0 0 0 0 0 0 0.0037911 0 0 0 0 0.170599 0 0 0 0.157184 0"/>
<feBlend mode="normal" in2="BackgroundImageFix" result="effect1_dropShadow_0_5377"/>
<feBlend mode="normal" in="SourceGraphic" in2="effect1_dropShadow_0_5377" result="shape"/>
</filter>
<linearGradient id="paint0_linear_0_5377" x1="8" y1="4" x2="8" y2="49" gradientUnits="userSpaceOnUse">
<stop stop-color="#4D4F95"/>
<stop offset="1" stop-color="#2B2D66"/>
</linearGradient>
<linearGradient id="paint1_linear_0_5377" x1="56" y1="4" x2="8" y2="4" gradientUnits="userSpaceOnUse">
<stop stop-color="#6357F6"/>
<stop offset="1" stop-color="#E6606C"/>
</linearGradient>
</defs>
</svg>
