<svg width="206" height="76" viewBox="0 0 206 76" fill="none" xmlns="http://www.w3.org/2000/svg">
<g filter="url(#filter0_d_0_10761)">
<path d="M39.4653 35.2446C39.174 35.0915 38.826 35.0915 38.5347 35.2446L31.3889 39.0014C30.6553 39.3871 29.7978 38.7641 29.938 37.9472L31.3027 29.9903C31.3583 29.6659 31.2508 29.3349 31.0151 29.1052L25.234 23.4701C24.6405 22.8915 24.968 21.8835 25.7883 21.7644L33.7775 20.6035C34.1032 20.5561 34.3847 20.3516 34.5304 20.0564L38.1033 12.817C38.4701 12.0737 39.5299 12.0737 39.8967 12.817L43.4696 20.0564C43.6153 20.3516 43.8968 20.5561 44.2225 20.6035L52.2117 21.7644C53.032 21.8835 53.3595 22.8915 52.766 23.4701L46.9849 29.1052C46.7492 29.3349 46.6417 29.6659 46.6973 29.9903L48.062 37.9472C48.2022 38.7641 47.3447 39.3871 46.6111 39.0014L39.4653 35.2446Z" fill="url(#paint0_linear_0_10761)"/>
<path d="M39.4653 35.2446C39.174 35.0915 38.826 35.0915 38.5347 35.2446L31.3889 39.0014C30.6553 39.3871 29.7978 38.7641 29.938 37.9472L31.3027 29.9903C31.3583 29.6659 31.2508 29.3349 31.0151 29.1052L25.234 23.4701C24.6405 22.8915 24.968 21.8835 25.7883 21.7644L33.7775 20.6035C34.1032 20.5561 34.3847 20.3516 34.5304 20.0564L38.1033 12.817C38.4701 12.0737 39.5299 12.0737 39.8967 12.817L43.4696 20.0564C43.6153 20.3516 43.8968 20.5561 44.2225 20.6035L52.2117 21.7644C53.032 21.8835 53.3595 22.8915 52.766 23.4701L46.9849 29.1052C46.7492 29.3349 46.6417 29.6659 46.6973 29.9903L48.062 37.9472C48.2022 38.7641 47.3447 39.3871 46.6111 39.0014L39.4653 35.2446Z" fill="url(#paint1_linear_0_10761)"/>
<path d="M38.0693 34.3595L30.9236 38.1163L32.2883 30.1593C32.3996 29.5106 32.1845 28.8486 31.7131 28.3891L25.9321 22.754L33.9212 21.5931C34.5727 21.4984 35.1358 21.0893 35.4271 20.499L39 13.2596L42.5729 20.499C42.8642 21.0893 43.4273 21.4984 44.0788 21.5931L52.0679 22.754L46.2869 28.3891C45.8155 28.8486 45.6004 29.5106 45.7117 30.1593L47.0764 38.1163L39.9307 34.3595C39.348 34.0532 38.652 34.0532 38.0693 34.3595Z" stroke="white" stroke-opacity="0.0782099" stroke-width="2"/>
</g>
<g filter="url(#filter1_d_0_10761)">
<path d="M71.4653 35.2446C71.174 35.0915 70.826 35.0915 70.5347 35.2446L63.3889 39.0014C62.6553 39.3871 61.7978 38.7641 61.938 37.9472L63.3027 29.9903C63.3583 29.6659 63.2508 29.3349 63.0151 29.1052L57.234 23.4701C56.6405 22.8915 56.968 21.8835 57.7883 21.7644L65.7775 20.6035C66.1032 20.5561 66.3847 20.3516 66.5304 20.0564L70.1033 12.817C70.4701 12.0737 71.5299 12.0737 71.8967 12.817L75.4696 20.0564C75.6153 20.3516 75.8968 20.5561 76.2225 20.6035L84.2117 21.7644C85.032 21.8835 85.3595 22.8915 84.766 23.4701L78.9849 29.1052C78.7492 29.3349 78.6417 29.6659 78.6973 29.9903L80.062 37.9472C80.2022 38.7641 79.3447 39.3871 78.6111 39.0014L71.4653 35.2446Z" fill="url(#paint2_linear_0_10761)"/>
<path d="M71.4653 35.2446C71.174 35.0915 70.826 35.0915 70.5347 35.2446L63.3889 39.0014C62.6553 39.3871 61.7978 38.7641 61.938 37.9472L63.3027 29.9903C63.3583 29.6659 63.2508 29.3349 63.0151 29.1052L57.234 23.4701C56.6405 22.8915 56.968 21.8835 57.7883 21.7644L65.7775 20.6035C66.1032 20.5561 66.3847 20.3516 66.5304 20.0564L70.1033 12.817C70.4701 12.0737 71.5299 12.0737 71.8967 12.817L75.4696 20.0564C75.6153 20.3516 75.8968 20.5561 76.2225 20.6035L84.2117 21.7644C85.032 21.8835 85.3595 22.8915 84.766 23.4701L78.9849 29.1052C78.7492 29.3349 78.6417 29.6659 78.6973 29.9903L80.062 37.9472C80.2022 38.7641 79.3447 39.3871 78.6111 39.0014L71.4653 35.2446Z" fill="url(#paint3_linear_0_10761)"/>
<path d="M70.0693 34.3595L62.9236 38.1163L64.2883 30.1593C64.3996 29.5106 64.1845 28.8486 63.7131 28.3891L57.9321 22.754L65.9212 21.5931C66.5727 21.4984 67.1358 21.0893 67.4271 20.499L71 13.2596L74.5729 20.499C74.8642 21.0893 75.4273 21.4984 76.0788 21.5931L84.0679 22.754L78.2869 28.3891C77.8155 28.8486 77.6004 29.5106 77.7117 30.1593L79.0764 38.1163L71.9307 34.3595C71.348 34.0532 70.652 34.0532 70.0693 34.3595Z" stroke="white" stroke-opacity="0.0782099" stroke-width="2"/>
</g>
<g filter="url(#filter2_d_0_10761)">
<path d="M103.465 35.2446C103.174 35.0915 102.826 35.0915 102.535 35.2446L95.3889 39.0014C94.6553 39.3871 93.7978 38.7641 93.938 37.9472L95.3027 29.9903C95.3583 29.6659 95.2508 29.3349 95.0151 29.1052L89.234 23.4701C88.6405 22.8915 88.968 21.8835 89.7883 21.7644L97.7775 20.6035C98.1032 20.5561 98.3847 20.3516 98.5304 20.0564L102.103 12.817C102.47 12.0737 103.53 12.0737 103.897 12.817L107.47 20.0564C107.615 20.3516 107.897 20.5561 108.223 20.6035L116.212 21.7644C117.032 21.8835 117.359 22.8915 116.766 23.4701L110.985 29.1052C110.749 29.3349 110.642 29.6659 110.697 29.9903L112.062 37.9472C112.202 38.7641 111.345 39.3871 110.611 39.0014L103.465 35.2446Z" fill="url(#paint4_linear_0_10761)"/>
<path d="M103.465 35.2446C103.174 35.0915 102.826 35.0915 102.535 35.2446L95.3889 39.0014C94.6553 39.3871 93.7978 38.7641 93.938 37.9472L95.3027 29.9903C95.3583 29.6659 95.2508 29.3349 95.0151 29.1052L89.234 23.4701C88.6405 22.8915 88.968 21.8835 89.7883 21.7644L97.7775 20.6035C98.1032 20.5561 98.3847 20.3516 98.5304 20.0564L102.103 12.817C102.47 12.0737 103.53 12.0737 103.897 12.817L107.47 20.0564C107.615 20.3516 107.897 20.5561 108.223 20.6035L116.212 21.7644C117.032 21.8835 117.359 22.8915 116.766 23.4701L110.985 29.1052C110.749 29.3349 110.642 29.6659 110.697 29.9903L112.062 37.9472C112.202 38.7641 111.345 39.3871 110.611 39.0014L103.465 35.2446Z" fill="url(#paint5_linear_0_10761)"/>
<path d="M102.069 34.3595L94.9236 38.1163L96.2883 30.1593C96.3996 29.5106 96.1845 28.8486 95.7131 28.3891L89.9321 22.754L97.9212 21.5931C98.5727 21.4984 99.1358 21.0893 99.4271 20.499L103 13.2596L106.573 20.499C106.864 21.0893 107.427 21.4984 108.079 21.5931L116.068 22.754L110.287 28.3891C109.816 28.8486 109.6 29.5106 109.712 30.1593L111.076 38.1163L103.931 34.3595C103.348 34.0532 102.652 34.0532 102.069 34.3595Z" stroke="white" stroke-opacity="0.0782099" stroke-width="2"/>
</g>
<g filter="url(#filter3_d_0_10761)">
<path d="M135.465 35.2446C135.174 35.0915 134.826 35.0915 134.535 35.2446L127.389 39.0014C126.655 39.3871 125.798 38.7641 125.938 37.9472L127.303 29.9903C127.358 29.6659 127.251 29.3349 127.015 29.1052L121.234 23.4701C120.641 22.8915 120.968 21.8835 121.788 21.7644L129.777 20.6035C130.103 20.5561 130.385 20.3516 130.53 20.0564L134.103 12.817C134.47 12.0737 135.53 12.0737 135.897 12.817L139.47 20.0564C139.615 20.3516 139.897 20.5561 140.223 20.6035L148.212 21.7644C149.032 21.8835 149.359 22.8915 148.766 23.4701L142.985 29.1052C142.749 29.3349 142.642 29.6659 142.697 29.9903L144.062 37.9472C144.202 38.7641 143.345 39.3871 142.611 39.0014L135.465 35.2446Z" fill="url(#paint6_linear_0_10761)"/>
<path d="M135.465 35.2446C135.174 35.0915 134.826 35.0915 134.535 35.2446L127.389 39.0014C126.655 39.3871 125.798 38.7641 125.938 37.9472L127.303 29.9903C127.358 29.6659 127.251 29.3349 127.015 29.1052L121.234 23.4701C120.641 22.8915 120.968 21.8835 121.788 21.7644L129.777 20.6035C130.103 20.5561 130.385 20.3516 130.53 20.0564L134.103 12.817C134.47 12.0737 135.53 12.0737 135.897 12.817L139.47 20.0564C139.615 20.3516 139.897 20.5561 140.223 20.6035L148.212 21.7644C149.032 21.8835 149.359 22.8915 148.766 23.4701L142.985 29.1052C142.749 29.3349 142.642 29.6659 142.697 29.9903L144.062 37.9472C144.202 38.7641 143.345 39.3871 142.611 39.0014L135.465 35.2446Z" fill="url(#paint7_linear_0_10761)"/>
<path d="M134.069 34.3595L126.924 38.1163L128.288 30.1593C128.4 29.5106 128.184 28.8486 127.713 28.3891L121.932 22.754L129.921 21.5931C130.573 21.4984 131.136 21.0893 131.427 20.499L135 13.2596L138.573 20.499C138.864 21.0893 139.427 21.4984 140.079 21.5931L148.068 22.754L142.287 28.3891C141.816 28.8486 141.6 29.5106 141.712 30.1593L143.076 38.1163L135.931 34.3595C135.348 34.0532 134.652 34.0532 134.069 34.3595Z" stroke="white" stroke-opacity="0.0782099" stroke-width="2"/>
</g>
<g filter="url(#filter4_d_0_10761)">
<path d="M167.465 35.2446C167.174 35.0915 166.826 35.0915 166.535 35.2446L159.389 39.0014C158.655 39.3871 157.798 38.7641 157.938 37.9472L159.303 29.9903C159.358 29.6659 159.251 29.3349 159.015 29.1052L153.234 23.4701C152.641 22.8915 152.968 21.8835 153.788 21.7644L161.777 20.6035C162.103 20.5561 162.385 20.3516 162.53 20.0564L166.103 12.817C166.47 12.0737 167.53 12.0737 167.897 12.817L171.47 20.0564C171.615 20.3516 171.897 20.5561 172.223 20.6035L180.212 21.7644C181.032 21.8835 181.359 22.8915 180.766 23.4701L174.985 29.1052C174.749 29.3349 174.642 29.6659 174.697 29.9903L176.062 37.9472C176.202 38.7641 175.345 39.3871 174.611 39.0014L167.465 35.2446Z" fill="url(#paint8_linear_0_10761)"/>
<path d="M167.465 35.2446C167.174 35.0915 166.826 35.0915 166.535 35.2446L159.389 39.0014C158.655 39.3871 157.798 38.7641 157.938 37.9472L159.303 29.9903C159.358 29.6659 159.251 29.3349 159.015 29.1052L153.234 23.4701C152.641 22.8915 152.968 21.8835 153.788 21.7644L161.777 20.6035C162.103 20.5561 162.385 20.3516 162.53 20.0564L166.103 12.817C166.47 12.0737 167.53 12.0737 167.897 12.817L171.47 20.0564C171.615 20.3516 171.897 20.5561 172.223 20.6035L180.212 21.7644C181.032 21.8835 181.359 22.8915 180.766 23.4701L174.985 29.1052C174.749 29.3349 174.642 29.6659 174.697 29.9903L176.062 37.9472C176.202 38.7641 175.345 39.3871 174.611 39.0014L167.465 35.2446Z" fill="url(#paint9_linear_0_10761)"/>
<path d="M166.069 34.3595L158.924 38.1163L160.288 30.1593C160.4 29.5106 160.184 28.8486 159.713 28.3891L153.932 22.754L161.921 21.5931C162.573 21.4984 163.136 21.0893 163.427 20.499L167 13.2596L170.573 20.499C170.864 21.0893 171.427 21.4984 172.079 21.5931L180.068 22.754L174.287 28.3891C173.816 28.8486 173.6 29.5106 173.712 30.1593L175.076 38.1163L167.931 34.3595C167.348 34.0532 166.652 34.0532 166.069 34.3595Z" stroke="white" stroke-opacity="0.0782099" stroke-width="2"/>
</g>
<defs>
<filter id="filter0_d_0_10761" x="0.930969" y="0.259766" width="76.1381" height="74.8589" filterUnits="userSpaceOnUse" color-interpolation-filters="sRGB">
<feFlood flood-opacity="0" result="BackgroundImageFix"/>
<feColorMatrix in="SourceAlpha" type="matrix" values="0 0 0 0 0 0 0 0 0 0 0 0 0 0 0 0 0 0 127 0" result="hardAlpha"/>
<feOffset dy="12"/>
<feGaussianBlur stdDeviation="12"/>
<feColorMatrix type="matrix" values="0 0 0 0 0 0 0 0 0 0.0037911 0 0 0 0 0.170599 0 0 0 0.157184 0"/>
<feBlend mode="normal" in2="BackgroundImageFix" result="effect1_dropShadow_0_10761"/>
<feBlend mode="normal" in="SourceGraphic" in2="effect1_dropShadow_0_10761" result="shape"/>
</filter>
<filter id="filter1_d_0_10761" x="32.931" y="0.259766" width="76.1381" height="74.8589" filterUnits="userSpaceOnUse" color-interpolation-filters="sRGB">
<feFlood flood-opacity="0" result="BackgroundImageFix"/>
<feColorMatrix in="SourceAlpha" type="matrix" values="0 0 0 0 0 0 0 0 0 0 0 0 0 0 0 0 0 0 127 0" result="hardAlpha"/>
<feOffset dy="12"/>
<feGaussianBlur stdDeviation="12"/>
<feColorMatrix type="matrix" values="0 0 0 0 0 0 0 0 0 0.0037911 0 0 0 0 0.170599 0 0 0 0.157184 0"/>
<feBlend mode="normal" in2="BackgroundImageFix" result="effect1_dropShadow_0_10761"/>
<feBlend mode="normal" in="SourceGraphic" in2="effect1_dropShadow_0_10761" result="shape"/>
</filter>
<filter id="filter2_d_0_10761" x="64.931" y="0.259766" width="76.1381" height="74.8589" filterUnits="userSpaceOnUse" color-interpolation-filters="sRGB">
<feFlood flood-opacity="0" result="BackgroundImageFix"/>
<feColorMatrix in="SourceAlpha" type="matrix" values="0 0 0 0 0 0 0 0 0 0 0 0 0 0 0 0 0 0 127 0" result="hardAlpha"/>
<feOffset dy="12"/>
<feGaussianBlur stdDeviation="12"/>
<feColorMatrix type="matrix" values="0 0 0 0 0 0 0 0 0 0.0037911 0 0 0 0 0.170599 0 0 0 0.157184 0"/>
<feBlend mode="normal" in2="BackgroundImageFix" result="effect1_dropShadow_0_10761"/>
<feBlend mode="normal" in="SourceGraphic" in2="effect1_dropShadow_0_10761" result="shape"/>
</filter>
<filter id="filter3_d_0_10761" x="96.931" y="0.259766" width="76.1381" height="74.8589" filterUnits="userSpaceOnUse" color-interpolation-filters="sRGB">
<feFlood flood-opacity="0" result="BackgroundImageFix"/>
<feColorMatrix in="SourceAlpha" type="matrix" values="0 0 0 0 0 0 0 0 0 0 0 0 0 0 0 0 0 0 127 0" result="hardAlpha"/>
<feOffset dy="12"/>
<feGaussianBlur stdDeviation="12"/>
<feColorMatrix type="matrix" values="0 0 0 0 0 0 0 0 0 0.0037911 0 0 0 0 0.170599 0 0 0 0.157184 0"/>
<feBlend mode="normal" in2="BackgroundImageFix" result="effect1_dropShadow_0_10761"/>
<feBlend mode="normal" in="SourceGraphic" in2="effect1_dropShadow_0_10761" result="shape"/>
</filter>
<filter id="filter4_d_0_10761" x="128.931" y="0.259766" width="76.1381" height="74.8589" filterUnits="userSpaceOnUse" color-interpolation-filters="sRGB">
<feFlood flood-opacity="0" result="BackgroundImageFix"/>
<feColorMatrix in="SourceAlpha" type="matrix" values="0 0 0 0 0 0 0 0 0 0 0 0 0 0 0 0 0 0 127 0" result="hardAlpha"/>
<feOffset dy="12"/>
<feGaussianBlur stdDeviation="12"/>
<feColorMatrix type="matrix" values="0 0 0 0 0 0 0 0 0 0.0037911 0 0 0 0 0.170599 0 0 0 0.157184 0"/>
<feBlend mode="normal" in2="BackgroundImageFix" result="effect1_dropShadow_0_10761"/>
<feBlend mode="normal" in="SourceGraphic" in2="effect1_dropShadow_0_10761" result="shape"/>
</filter>
<linearGradient id="paint0_linear_0_10761" x1="23" y1="11" x2="23" y2="43" gradientUnits="userSpaceOnUse">
<stop stop-color="#4D4F95"/>
<stop offset="1" stop-color="#2B2D66"/>
</linearGradient>
<linearGradient id="paint1_linear_0_10761" x1="55" y1="11" x2="23" y2="11" gradientUnits="userSpaceOnUse">
<stop stop-color="#6357F6"/>
<stop offset="1" stop-color="#E6606C"/>
</linearGradient>
<linearGradient id="paint2_linear_0_10761" x1="55" y1="11" x2="55" y2="43" gradientUnits="userSpaceOnUse">
<stop stop-color="#4D4F95"/>
<stop offset="1" stop-color="#2B2D66"/>
</linearGradient>
<linearGradient id="paint3_linear_0_10761" x1="87" y1="11" x2="55" y2="11" gradientUnits="userSpaceOnUse">
<stop stop-color="#6357F6"/>
<stop offset="1" stop-color="#E6606C"/>
</linearGradient>
<linearGradient id="paint4_linear_0_10761" x1="87" y1="11" x2="87" y2="43" gradientUnits="userSpaceOnUse">
<stop stop-color="#4D4F95"/>
<stop offset="1" stop-color="#2B2D66"/>
</linearGradient>
<linearGradient id="paint5_linear_0_10761" x1="119" y1="11" x2="87" y2="11" gradientUnits="userSpaceOnUse">
<stop stop-color="#6357F6"/>
<stop offset="1" stop-color="#E6606C"/>
</linearGradient>
<linearGradient id="paint6_linear_0_10761" x1="119" y1="11" x2="119" y2="43" gradientUnits="userSpaceOnUse">
<stop stop-color="#4D4F95"/>
<stop offset="1" stop-color="#2B2D66"/>
</linearGradient>
<linearGradient id="paint7_linear_0_10761" x1="151" y1="11" x2="119" y2="11" gradientUnits="userSpaceOnUse">
<stop stop-color="#6357F6"/>
<stop offset="1" stop-color="#E6606C"/>
</linearGradient>
<linearGradient id="paint8_linear_0_10761" x1="151" y1="11" x2="151" y2="43" gradientUnits="userSpaceOnUse">
<stop stop-color="#4D4F95"/>
<stop offset="1" stop-color="#2B2D66"/>
</linearGradient>
<linearGradient id="paint9_linear_0_10761" x1="183" y1="11" x2="151" y2="11" gradientUnits="userSpaceOnUse">
<stop stop-color="#6357F6"/>
<stop offset="1" stop-color="#E6606C"/>
</linearGradient>
</defs>
</svg>
