<svg width="64" height="46" viewBox="0 0 64 46" fill="none" xmlns="http://www.w3.org/2000/svg">
<g filter="url(#filter0_d_0_5401)">
<mask id="path-1-inside-1_0_5401" fill="white">
<path fill-rule="evenodd" clip-rule="evenodd" d="M13.9249 4H50.0751C53.2955 4 56 6.60956 56 9.93979V28.0602C56 31.3772 53.3076 34 50.0751 34H41.4065C39.8252 34 38.3362 33.3832 37.2137 32.2627L34.2009 29.2427C33.6212 28.6583 32.8207 28.326 32 28.326C31.1793 28.326 30.3788 28.6583 29.8038 29.238L26.7892 32.2602C25.6638 33.3832 24.1748 34 22.5935 34H13.9249C10.7045 34 8 31.3904 8 28.0602V9.93979C8 6.62277 10.6924 4 13.9249 4ZM15.5311 19.0002C15.5311 22.2753 18.1891 24.94 21.4561 24.94C24.7234 24.94 27.3813 22.2753 27.3813 19.0002C27.3813 15.725 24.7234 13.06 21.4561 13.06C18.1891 13.06 15.5311 15.725 15.5311 19.0002ZM42.5439 24.94C39.2766 24.94 36.6187 22.2753 36.6187 19.0002C36.6187 15.725 39.2766 13.06 42.5439 13.06C45.8109 13.06 48.4689 15.725 48.4689 19.0002C48.4689 22.2753 45.8109 24.94 42.5439 24.94ZM21.4561 15.8796C19.74 15.8796 18.3436 17.2794 18.3436 19.0002C18.3436 20.7206 19.74 22.1204 21.4561 22.1204C23.1725 22.1204 24.5688 20.7206 24.5688 19.0002C24.5688 17.2794 23.1725 15.8796 21.4561 15.8796ZM42.5439 15.8796C40.8275 15.8796 39.4312 17.2794 39.4312 19.0002C39.4312 20.7206 40.8275 22.1204 42.5439 22.1204C44.26 22.1204 45.6564 20.7206 45.6564 19.0002C45.6564 17.2794 44.26 15.8796 42.5439 15.8796Z"/>
</mask>
<path fill-rule="evenodd" clip-rule="evenodd" d="M13.9249 4H50.0751C53.2955 4 56 6.60956 56 9.93979V28.0602C56 31.3772 53.3076 34 50.0751 34H41.4065C39.8252 34 38.3362 33.3832 37.2137 32.2627L34.2009 29.2427C33.6212 28.6583 32.8207 28.326 32 28.326C31.1793 28.326 30.3788 28.6583 29.8038 29.238L26.7892 32.2602C25.6638 33.3832 24.1748 34 22.5935 34H13.9249C10.7045 34 8 31.3904 8 28.0602V9.93979C8 6.62277 10.6924 4 13.9249 4ZM15.5311 19.0002C15.5311 22.2753 18.1891 24.94 21.4561 24.94C24.7234 24.94 27.3813 22.2753 27.3813 19.0002C27.3813 15.725 24.7234 13.06 21.4561 13.06C18.1891 13.06 15.5311 15.725 15.5311 19.0002ZM42.5439 24.94C39.2766 24.94 36.6187 22.2753 36.6187 19.0002C36.6187 15.725 39.2766 13.06 42.5439 13.06C45.8109 13.06 48.4689 15.725 48.4689 19.0002C48.4689 22.2753 45.8109 24.94 42.5439 24.94ZM21.4561 15.8796C19.74 15.8796 18.3436 17.2794 18.3436 19.0002C18.3436 20.7206 19.74 22.1204 21.4561 22.1204C23.1725 22.1204 24.5688 20.7206 24.5688 19.0002C24.5688 17.2794 23.1725 15.8796 21.4561 15.8796ZM42.5439 15.8796C40.8275 15.8796 39.4312 17.2794 39.4312 19.0002C39.4312 20.7206 40.8275 22.1204 42.5439 22.1204C44.26 22.1204 45.6564 20.7206 45.6564 19.0002C45.6564 17.2794 44.26 15.8796 42.5439 15.8796Z" fill="url(#paint0_linear_0_5401)"/>
<path fill-rule="evenodd" clip-rule="evenodd" d="M13.9249 4H50.0751C53.2955 4 56 6.60956 56 9.93979V28.0602C56 31.3772 53.3076 34 50.0751 34H41.4065C39.8252 34 38.3362 33.3832 37.2137 32.2627L34.2009 29.2427C33.6212 28.6583 32.8207 28.326 32 28.326C31.1793 28.326 30.3788 28.6583 29.8038 29.238L26.7892 32.2602C25.6638 33.3832 24.1748 34 22.5935 34H13.9249C10.7045 34 8 31.3904 8 28.0602V9.93979C8 6.62277 10.6924 4 13.9249 4ZM15.5311 19.0002C15.5311 22.2753 18.1891 24.94 21.4561 24.94C24.7234 24.94 27.3813 22.2753 27.3813 19.0002C27.3813 15.725 24.7234 13.06 21.4561 13.06C18.1891 13.06 15.5311 15.725 15.5311 19.0002ZM42.5439 24.94C39.2766 24.94 36.6187 22.2753 36.6187 19.0002C36.6187 15.725 39.2766 13.06 42.5439 13.06C45.8109 13.06 48.4689 15.725 48.4689 19.0002C48.4689 22.2753 45.8109 24.94 42.5439 24.94ZM21.4561 15.8796C19.74 15.8796 18.3436 17.2794 18.3436 19.0002C18.3436 20.7206 19.74 22.1204 21.4561 22.1204C23.1725 22.1204 24.5688 20.7206 24.5688 19.0002C24.5688 17.2794 23.1725 15.8796 21.4561 15.8796ZM42.5439 15.8796C40.8275 15.8796 39.4312 17.2794 39.4312 19.0002C39.4312 20.7206 40.8275 22.1204 42.5439 22.1204C44.26 22.1204 45.6564 20.7206 45.6564 19.0002C45.6564 17.2794 44.26 15.8796 42.5439 15.8796Z" fill="url(#paint1_linear_0_5401)"/>
<path d="M37.2137 32.2627L36.5058 32.969L36.5073 32.9705L37.2137 32.2627ZM34.2009 29.2427L33.4909 29.9469L33.493 29.949L34.2009 29.2427ZM29.8038 29.238L30.5118 29.9442L30.5138 29.9422L29.8038 29.238ZM26.7892 32.2602L27.4956 32.968L27.4972 32.9664L26.7892 32.2602ZM50.0751 3H13.9249V5H50.0751V3ZM57 9.93979C57 6.04851 53.839 3 50.0751 3V5C52.7521 5 55 7.17061 55 9.93979H57ZM57 28.0602V9.93979H55V28.0602H57ZM50.0751 35C53.8539 35 57 31.9355 57 28.0602H55C55 30.8189 52.7613 33 50.0751 33V35ZM41.4065 35H50.0751V33H41.4065V35ZM36.5073 32.9705C37.8166 34.2776 39.5595 35 41.4065 35V33C40.0909 33 38.8557 32.4889 37.9202 31.555L36.5073 32.9705ZM33.493 29.949L36.5058 32.969L37.9217 31.5565L34.9089 28.5365L33.493 29.949ZM32 29.326C32.5546 29.326 33.0994 29.5522 33.4909 29.9469L34.9109 28.5385C34.143 27.7643 33.0867 27.326 32 27.326V29.326ZM30.5138 29.9422C30.8998 29.553 31.4442 29.326 32 29.326V27.326C30.9144 27.326 29.8578 27.7635 29.0938 28.5338L30.5138 29.9422ZM27.4972 32.9664L30.5118 29.9442L29.0958 28.5317L26.0812 31.554L27.4972 32.9664ZM22.5935 35C24.4408 35 26.1835 34.2773 27.4956 32.968L26.0828 31.5523C25.1441 32.4891 23.9088 33 22.5935 33V35ZM13.9249 35H22.5935V33H13.9249V35ZM7 28.0602C7 31.9515 10.161 35 13.9249 35V33C11.2479 33 9 30.8294 9 28.0602H7ZM7 9.93979V28.0602H9V9.93979H7ZM13.9249 3C10.1461 3 7 6.06449 7 9.93979H9C9 7.18106 11.2386 5 13.9249 5V3ZM21.4561 23.94C18.7437 23.94 16.5311 21.7254 16.5311 19.0002H14.5311C14.5311 22.8253 17.6344 25.94 21.4561 25.94V23.94ZM26.3813 19.0002C26.3813 21.7254 24.1688 23.94 21.4561 23.94V25.94C25.278 25.94 28.3813 22.8253 28.3813 19.0002H26.3813ZM21.4561 14.06C24.1687 14.06 26.3813 16.2749 26.3813 19.0002H28.3813C28.3813 15.1751 25.2781 12.06 21.4561 12.06V14.06ZM16.5311 19.0002C16.5311 16.2749 18.7438 14.06 21.4561 14.06V12.06C17.6344 12.06 14.5311 15.1752 14.5311 19.0002H16.5311ZM35.6187 19.0002C35.6187 22.8253 38.722 25.94 42.5439 25.94V23.94C39.8312 23.94 37.6187 21.7254 37.6187 19.0002H35.6187ZM42.5439 12.06C38.7219 12.06 35.6187 15.1751 35.6187 19.0002H37.6187C37.6187 16.2749 39.8313 14.06 42.5439 14.06V12.06ZM49.4689 19.0002C49.4689 15.1752 46.3656 12.06 42.5439 12.06V14.06C45.2562 14.06 47.4689 16.2749 47.4689 19.0002H49.4689ZM42.5439 25.94C46.3656 25.94 49.4689 22.8253 49.4689 19.0002H47.4689C47.4689 21.7254 45.2563 23.94 42.5439 23.94V25.94ZM19.3436 19.0002C19.3436 17.8293 20.2947 16.8796 21.4561 16.8796V14.8796C19.1853 14.8796 17.3436 16.7296 17.3436 19.0002H19.3436ZM21.4561 21.1204C20.2946 21.1204 19.3436 20.1706 19.3436 19.0002H17.3436C17.3436 21.2705 19.1853 23.1204 21.4561 23.1204V21.1204ZM23.5688 19.0002C23.5688 20.1706 22.6179 21.1204 21.4561 21.1204V23.1204C23.7271 23.1204 25.5688 21.2705 25.5688 19.0002H23.5688ZM21.4561 16.8796C22.6178 16.8796 23.5688 17.8294 23.5688 19.0002H25.5688C25.5688 16.7295 23.7271 14.8796 21.4561 14.8796V16.8796ZM40.4312 19.0002C40.4312 17.8294 41.3822 16.8796 42.5439 16.8796V14.8796C40.2729 14.8796 38.4312 16.7295 38.4312 19.0002H40.4312ZM42.5439 21.1204C41.3821 21.1204 40.4312 20.1706 40.4312 19.0002H38.4312C38.4312 21.2705 40.2729 23.1204 42.5439 23.1204V21.1204ZM44.6564 19.0002C44.6564 20.1706 43.7054 21.1204 42.5439 21.1204V23.1204C44.8147 23.1204 46.6564 21.2705 46.6564 19.0002H44.6564ZM42.5439 16.8796C43.7053 16.8796 44.6564 17.8293 44.6564 19.0002H46.6564C46.6564 16.7296 44.8147 14.8796 42.5439 14.8796V16.8796Z" fill="white" fill-opacity="0.0782099" mask="url(#path-1-inside-1_0_5401)"/>
</g>
<defs>
<filter id="filter0_d_0_5401" x="0" y="0" width="64" height="46" filterUnits="userSpaceOnUse" color-interpolation-filters="sRGB">
<feFlood flood-opacity="0" result="BackgroundImageFix"/>
<feColorMatrix in="SourceAlpha" type="matrix" values="0 0 0 0 0 0 0 0 0 0 0 0 0 0 0 0 0 0 127 0" result="hardAlpha"/>
<feOffset dy="4"/>
<feGaussianBlur stdDeviation="4"/>
<feColorMatrix type="matrix" values="0 0 0 0 0 0 0 0 0 0.0037911 0 0 0 0 0.170599 0 0 0 0.157184 0"/>
<feBlend mode="normal" in2="BackgroundImageFix" result="effect1_dropShadow_0_5401"/>
<feBlend mode="normal" in="SourceGraphic" in2="effect1_dropShadow_0_5401" result="shape"/>
</filter>
<linearGradient id="paint0_linear_0_5401" x1="8" y1="4" x2="8" y2="34" gradientUnits="userSpaceOnUse">
<stop stop-color="#4D4F95"/>
<stop offset="1" stop-color="#2B2D66"/>
</linearGradient>
<linearGradient id="paint1_linear_0_5401" x1="56" y1="4" x2="8" y2="4" gradientUnits="userSpaceOnUse">
<stop stop-color="#6357F6"/>
<stop offset="1" stop-color="#E6606C"/>
</linearGradient>
</defs>
</svg>
